<svg width="64" height="64" viewBox="0 0 64 64" fill="none" xmlns="http://www.w3.org/2000/svg">
<path d="M32 38C35.3137 38 38 35.3137 38 32C38 28.6863 35.3137 26 32 26C28.6863 26 26 28.6863 26 32C26 35.3137 28.6863 38 32 38Z" fill="#432EBC"/>
<path d="M46.8 38C46.5338 38.6032 46.4544 39.2724 46.572 39.9212C46.6896 40.57 46.9989 41.1686 47.46 41.64L47.58 41.76C47.9519 42.1315 48.2469 42.5726 48.4482 43.0582C48.6495 43.5438 48.7531 44.0643 48.7531 44.59C48.7531 45.1157 48.6495 45.6362 48.4482 46.1218C48.2469 46.6074 47.9519 47.0485 47.58 47.42C47.2085 47.7919 46.7674 48.0869 46.2818 48.2882C45.7962 48.4895 45.2757 48.5931 44.75 48.5931C44.2243 48.5931 43.7038 48.4895 43.2182 48.2882C42.7326 48.0869 42.2915 47.7919 41.92 47.42L41.8 47.3C41.3286 46.8389 40.73 46.5296 40.0812 46.412C39.4324 46.2944 38.7632 46.3738 38.16 46.64C37.5685 46.8935 37.064 47.3145 36.7086 47.8511C36.3533 48.3877 36.1626 49.0164 36.16 49.66V50C36.16 51.0609 35.7386 52.0783 34.9884 52.8284C34.2383 53.5786 33.2209 54 32.16 54C31.0991 54 30.0817 53.5786 29.3316 52.8284C28.5814 52.0783 28.16 51.0609 28.16 50V49.82C28.1445 49.158 27.9302 48.516 27.545 47.9774C27.1598 47.4388 26.6215 47.0286 26 46.8C25.3968 46.5338 24.7276 46.4544 24.0788 46.572C23.43 46.6896 22.8314 46.9989 22.36 47.46L22.24 47.58C21.8685 47.9519 21.4274 48.2469 20.9418 48.4482C20.4562 48.6495 19.9357 48.7531 19.41 48.7531C18.8843 48.7531 18.3638 48.6495 17.8782 48.4482C17.3926 48.2469 16.9515 47.9519 16.58 47.58C16.2081 47.2085 15.9131 46.7674 15.7118 46.2818C15.5105 45.7962 15.4069 45.2757 15.4069 44.75C15.4069 44.2243 15.5105 43.7038 15.7118 43.2182C15.9131 42.7326 16.2081 42.2915 16.58 41.92L16.7 41.8C17.1611 41.3286 17.4704 40.73 17.588 40.0812C17.7056 39.4324 17.6262 38.7632 17.36 38.16C17.1065 37.5685 16.6855 37.064 16.1489 36.7086C15.6124 36.3533 14.9836 36.1626 14.34 36.16H14C12.9391 36.16 11.9217 35.7386 11.1716 34.9884C10.4214 34.2383 10 33.2209 10 32.16C10 31.0991 10.4214 30.0817 11.1716 29.3316C11.9217 28.5814 12.9391 28.16 14 28.16H14.18C14.842 28.1445 15.484 27.9302 16.0226 27.545C16.5612 27.1598 16.9714 26.6215 17.2 26C17.4662 25.3968 17.5456 24.7276 17.428 24.0788C17.3104 23.43 17.0011 22.8314 16.54 22.36L16.42 22.24C16.0481 21.8685 15.7531 21.4274 15.5518 20.9418C15.3505 20.4562 15.2469 19.9357 15.2469 19.41C15.2469 18.8843 15.3505 18.3638 15.5518 17.8782C15.7531 17.3926 16.0481 16.9515 16.42 16.58C16.7915 16.2081 17.2326 15.9131 17.7182 15.7118C18.2038 15.5105 18.7243 15.4069 19.25 15.4069C19.7757 15.4069 20.2962 15.5105 20.7818 15.7118C21.2674 15.9131 21.7085 16.2081 22.08 16.58L22.2 16.7C22.6714 17.1611 23.27 17.4704 23.9188 17.588C24.5676 17.7056 25.2368 17.6262 25.84 17.36H26C26.5915 17.1065 27.096 16.6855 27.4514 16.1489C27.8067 15.6124 27.9974 14.9836 28 14.34V14C28 12.9391 28.4214 11.9217 29.1716 11.1716C29.9217 10.4214 30.9391 10 32 10C33.0609 10 34.0783 10.4214 34.8284 11.1716C35.5786 11.9217 36 12.9391 36 14V14.18C36.0026 14.8236 36.1933 15.4524 36.5486 15.9889C36.904 16.5255 37.4085 16.9465 38 17.2C38.6032 17.4662 39.2724 17.5456 39.9212 17.428C40.57 17.3104 41.1686 17.0011 41.64 16.54L41.76 16.42C42.1315 16.0481 42.5726 15.7531 43.0582 15.5518C43.5438 15.3505 44.0643 15.2469 44.59 15.2469C45.1157 15.2469 45.6362 15.3505 46.1218 15.5518C46.6074 15.7531 47.0485 16.0481 47.42 16.42C47.7919 16.7915 48.0869 17.2326 48.2882 17.7182C48.4895 18.2038 48.5931 18.7243 48.5931 19.25C48.5931 19.7757 48.4895 20.2962 48.2882 20.7818C48.0869 21.2674 47.7919 21.7085 47.42 22.08L47.3 22.2C46.8389 22.6714 46.5296 23.27 46.412 23.9188C46.2944 24.5676 46.3738 25.2368 46.64 25.84V26C46.8935 26.5915 47.3145 27.096 47.8511 27.4514C48.3877 27.8067 49.0164 27.9974 49.66 28H50C51.0609 28 52.0783 28.4214 52.8284 29.1716C53.5786 29.9217 54 30.9391 54 32C54 33.0609 53.5786 34.0783 52.8284 34.8284C52.0783 35.5786 51.0609 36 50 36H49.82C49.1764 36.0026 48.5477 36.1933 48.0111 36.5486C47.4745 36.904 47.0535 37.4085 46.8 38Z" fill="#432EBC"/>
<path d="M32 38C35.3137 38 38 35.3137 38 32C38 28.6863 35.3137 26 32 26C28.6863 26 26 28.6863 26 32C26 35.3137 28.6863 38 32 38Z" stroke="#220D96" stroke-width="20" stroke-linecap="round" stroke-linejoin="round"/>
<path d="M46.8 38C46.5338 38.6032 46.4544 39.2724 46.572 39.9212C46.6896 40.57 46.9989 41.1686 47.46 41.64L47.58 41.76C47.9519 42.1315 48.2469 42.5726 48.4482 43.0582C48.6495 43.5438 48.7531 44.0643 48.7531 44.59C48.7531 45.1157 48.6495 45.6362 48.4482 46.1218C48.2469 46.6074 47.9519 47.0485 47.58 47.42C47.2085 47.7919 46.7674 48.0869 46.2818 48.2882C45.7962 48.4895 45.2757 48.5931 44.75 48.5931C44.2243 48.5931 43.7038 48.4895 43.2182 48.2882C42.7326 48.0869 42.2915 47.7919 41.92 47.42L41.8 47.3C41.3286 46.8389 40.73 46.5296 40.0812 46.412C39.4324 46.2944 38.7632 46.3738 38.16 46.64C37.5685 46.8935 37.064 47.3145 36.7086 47.8511C36.3533 48.3877 36.1626 49.0164 36.16 49.66V50C36.16 51.0609 35.7386 52.0783 34.9884 52.8284C34.2383 53.5786 33.2209 54 32.16 54C31.0991 54 30.0817 53.5786 29.3316 52.8284C28.5814 52.0783 28.16 51.0609 28.16 50V49.82C28.1445 49.158 27.9302 48.516 27.545 47.9774C27.1598 47.4388 26.6215 47.0286 26 46.8C25.3968 46.5338 24.7276 46.4544 24.0788 46.572C23.43 46.6896 22.8314 46.9989 22.36 47.46L22.24 47.58C21.8685 47.9519 21.4274 48.2469 20.9418 48.4482C20.4562 48.6495 19.9357 48.7531 19.41 48.7531C18.8843 48.7531 18.3638 48.6495 17.8782 48.4482C17.3926 48.2469 16.9515 47.9519 16.58 47.58C16.2081 47.2085 15.9131 46.7674 15.7118 46.2818C15.5105 45.7962 15.4069 45.2757 15.4069 44.75C15.4069 44.2243 15.5105 43.7038 15.7118 43.2182C15.9131 42.7326 16.2081 42.2915 16.58 41.92L16.7 41.8C17.1611 41.3286 17.4704 40.73 17.588 40.0812C17.7056 39.4324 17.6262 38.7632 17.36 38.16C17.1065 37.5685 16.6855 37.064 16.1489 36.7086C15.6124 36.3533 14.9836 36.1626 14.34 36.16H14C12.9391 36.16 11.9217 35.7386 11.1716 34.9884C10.4214 34.2383 10 33.2209 10 32.16C10 31.0991 10.4214 30.0817 11.1716 29.3316C11.9217 28.5814 12.9391 28.16 14 28.16H14.18C14.842 28.1445 15.484 27.9302 16.0226 27.545C16.5612 27.1598 16.9714 26.6215 17.2 26C17.4662 25.3968 17.5456 24.7276 17.428 24.0788C17.3104 23.43 17.0011 22.8314 16.54 22.36L16.42 22.24C16.0481 21.8685 15.7531 21.4274 15.5518 20.9418C15.3505 20.4562 15.2469 19.9357 15.2469 19.41C15.2469 18.8843 15.3505 18.3638 15.5518 17.8782C15.7531 17.3926 16.0481 16.9515 16.42 16.58C16.7915 16.2081 17.2326 15.9131 17.7182 15.7118C18.2038 15.5105 18.7243 15.4069 19.25 15.4069C19.7757 15.4069 20.2962 15.5105 20.7818 15.7118C21.2674 15.9131 21.7085 16.2081 22.08 16.58L22.2 16.7C22.6714 17.1611 23.27 17.4704 23.9188 17.588C24.5676 17.7056 25.2368 17.6262 25.84 17.36H26C26.5915 17.1065 27.096 16.6855 27.4514 16.1489C27.8067 15.6124 27.9974 14.9836 28 14.34V14C28 12.9391 28.4214 11.9217 29.1716 11.1716C29.9217 10.4214 30.9391 10 32 10C33.0609 10 34.0783 10.4214 34.8284 11.1716C35.5786 11.9217 36 12.9391 36 14V14.18C36.0026 14.8236 36.1933 15.4524 36.5486 15.9889C36.904 16.5255 37.4085 16.9465 38 17.2C38.6032 17.4662 39.2724 17.5456 39.9212 17.428C40.57 17.3104 41.1686 17.0011 41.64 16.54L41.76 16.42C42.1315 16.0481 42.5726 15.7531 43.0582 15.5518C43.5438 15.3505 44.0643 15.2469 44.59 15.2469C45.1157 15.2469 45.6362 15.3505 46.1218 15.5518C46.6074 15.7531 47.0485 16.0481 47.42 16.42C47.7919 16.7915 48.0869 17.2326 48.2882 17.7182C48.4895 18.2038 48.5931 18.7243 48.5931 19.25C48.5931 19.7757 48.4895 20.2962 48.2882 20.7818C48.0869 21.2674 47.7919 21.7085 47.42 22.08L47.3 22.2C46.8389 22.6714 46.5296 23.27 46.412 23.9188C46.2944 24.5676 46.3738 25.2368 46.64 25.84V26C46.8935 26.5915 47.3145 27.096 47.8511 27.4514C48.3877 27.8067 49.0164 27.9974 49.66 28H50C51.0609 28 52.0783 28.4214 52.8284 29.1716C53.5786 29.9217 54 30.9391 54 32C54 33.0609 53.5786 34.0783 52.8284 34.8284C52.0783 35.5786 51.0609 36 50 36H49.82C49.1764 36.0026 48.5477 36.1933 48.0111 36.5486C47.4745 36.904 47.0535 37.4085 46.8 38Z" stroke="#220D96" stroke-width="20" stroke-linecap="round" stroke-linejoin="round"/>
<path d="M32 38C35.3137 38 38 35.3137 38 32C38 28.6863 35.3137 26 32 26C28.6863 26 26 28.6863 26 32C26 35.3137 28.6863 38 32 38Z" stroke="#03FBFF" stroke-width="4" stroke-linecap="round" stroke-linejoin="round"/>
<path d="M46.8 38C46.5338 38.6032 46.4544 39.2724 46.572 39.9212C46.6896 40.57 46.9989 41.1686 47.46 41.64L47.58 41.76C47.9519 42.1315 48.2469 42.5726 48.4482 43.0582C48.6495 43.5438 48.7531 44.0643 48.7531 44.59C48.7531 45.1157 48.6495 45.6362 48.4482 46.1218C48.2469 46.6074 47.9519 47.0485 47.58 47.42C47.2085 47.7919 46.7674 48.0869 46.2818 48.2882C45.7962 48.4895 45.2757 48.5931 44.75 48.5931C44.2243 48.5931 43.7038 48.4895 43.2182 48.2882C42.7326 48.0869 42.2915 47.7919 41.92 47.42L41.8 47.3C41.3286 46.8389 40.73 46.5296 40.0812 46.412C39.4324 46.2944 38.7632 46.3738 38.16 46.64C37.5685 46.8935 37.064 47.3145 36.7086 47.8511C36.3533 48.3877 36.1626 49.0164 36.16 49.66V50C36.16 51.0609 35.7386 52.0783 34.9884 52.8284C34.2383 53.5786 33.2209 54 32.16 54C31.0991 54 30.0817 53.5786 29.3316 52.8284C28.5814 52.0783 28.16 51.0609 28.16 50V49.82C28.1445 49.158 27.9302 48.516 27.545 47.9774C27.1598 47.4388 26.6215 47.0286 26 46.8C25.3968 46.5338 24.7276 46.4544 24.0788 46.572C23.43 46.6896 22.8314 46.9989 22.36 47.46L22.24 47.58C21.8685 47.9519 21.4274 48.2469 20.9418 48.4482C20.4562 48.6495 19.9357 48.7531 19.41 48.7531C18.8843 48.7531 18.3638 48.6495 17.8782 48.4482C17.3926 48.2469 16.9515 47.9519 16.58 47.58C16.2081 47.2085 15.9131 46.7674 15.7118 46.2818C15.5105 45.7962 15.4069 45.2757 15.4069 44.75C15.4069 44.2243 15.5105 43.7038 15.7118 43.2182C15.9131 42.7326 16.2081 42.2915 16.58 41.92L16.7 41.8C17.1611 41.3286 17.4704 40.73 17.588 40.0812C17.7056 39.4324 17.6262 38.7632 17.36 38.16C17.1065 37.5685 16.6855 37.064 16.1489 36.7086C15.6124 36.3533 14.9836 36.1626 14.34 36.16H14C12.9391 36.16 11.9217 35.7386 11.1716 34.9884C10.4214 34.2383 10 33.2209 10 32.16C10 31.0991 10.4214 30.0817 11.1716 29.3316C11.9217 28.5814 12.9391 28.16 14 28.16H14.18C14.842 28.1445 15.484 27.9302 16.0226 27.545C16.5612 27.1598 16.9714 26.6215 17.2 26C17.4662 25.3968 17.5456 24.7276 17.428 24.0788C17.3104 23.43 17.0011 22.8314 16.54 22.36L16.42 22.24C16.0481 21.8685 15.7531 21.4274 15.5518 20.9418C15.3505 20.4562 15.2469 19.9357 15.2469 19.41C15.2469 18.8843 15.3505 18.3638 15.5518 17.8782C15.7531 17.3926 16.0481 16.9515 16.42 16.58C16.7915 16.2081 17.2326 15.9131 17.7182 15.7118C18.2038 15.5105 18.7243 15.4069 19.25 15.4069C19.7757 15.4069 20.2962 15.5105 20.7818 15.7118C21.2674 15.9131 21.7085 16.2081 22.08 16.58L22.2 16.7C22.6714 17.1611 23.27 17.4704 23.9188 17.588C24.5676 17.7056 25.2368 17.6262 25.84 17.36H26C26.5915 17.1065 27.096 16.6855 27.4514 16.1489C27.8067 15.6124 27.9974 14.9836 28 14.34V14C28 12.9391 28.4214 11.9217 29.1716 11.1716C29.9217 10.4214 30.9391 10 32 10C33.0609 10 34.0783 10.4214 34.8284 11.1716C35.5786 11.9217 36 12.9391 36 14V14.18C36.0026 14.8236 36.1933 15.4524 36.5486 15.9889C36.904 16.5255 37.4085 16.9465 38 17.2C38.6032 17.4662 39.2724 17.5456 39.9212 17.428C40.57 17.3104 41.1686 17.0011 41.64 16.54L41.76 16.42C42.1315 16.0481 42.5726 15.7531 43.0582 15.5518C43.5438 15.3505 44.0643 15.2469 44.59 15.2469C45.1157 15.2469 45.6362 15.3505 46.1218 15.5518C46.6074 15.7531 47.0485 16.0481 47.42 16.42C47.7919 16.7915 48.0869 17.2326 48.2882 17.7182C48.4895 18.2038 48.5931 18.7243 48.5931 19.25C48.5931 19.7757 48.4895 20.2962 48.2882 20.7818C48.0869 21.2674 47.7919 21.7085 47.42 22.08L47.3 22.2C46.8389 22.6714 46.5296 23.27 46.412 23.9188C46.2944 24.5676 46.3738 25.2368 46.64 25.84V26C46.8935 26.5915 47.3145 27.096 47.8511 27.4514C48.3877 27.8067 49.0164 27.9974 49.66 28H50C51.0609 28 52.0783 28.4214 52.8284 29.1716C53.5786 29.9217 54 30.9391 54 32C54 33.0609 53.5786 34.0783 52.8284 34.8284C52.0783 35.5786 51.0609 36 50 36H49.82C49.1764 36.0026 48.5477 36.1933 48.0111 36.5486C47.4745 36.904 47.0535 37.4085 46.8 38Z" stroke="#03FBFF" stroke-width="4" stroke-linecap="round" stroke-linejoin="round"/>
<mask id="mask0_22_58" style="mask-type:alpha" maskUnits="userSpaceOnUse" x="8" y="8" width="48" height="48">
<path d="M32 38C35.3137 38 38 35.3137 38 32C38 28.6863 35.3137 26 32 26C28.6863 26 26 28.6863 26 32C26 35.3137 28.6863 38 32 38Z" stroke="#03FBFF" stroke-width="4" stroke-linecap="round" stroke-linejoin="round"/>
<path d="M46.8 38C46.5338 38.6032 46.4544 39.2724 46.572 39.9212C46.6896 40.57 46.9989 41.1686 47.46 41.64L47.58 41.76C47.9519 42.1315 48.2469 42.5726 48.4482 43.0582C48.6495 43.5438 48.7531 44.0643 48.7531 44.59C48.7531 45.1157 48.6495 45.6362 48.4482 46.1218C48.2469 46.6074 47.9519 47.0485 47.58 47.42C47.2085 47.7919 46.7674 48.0869 46.2818 48.2882C45.7962 48.4895 45.2757 48.5931 44.75 48.5931C44.2243 48.5931 43.7038 48.4895 43.2182 48.2882C42.7326 48.0869 42.2915 47.7919 41.92 47.42L41.8 47.3C41.3286 46.8389 40.73 46.5296 40.0812 46.412C39.4324 46.2944 38.7632 46.3738 38.16 46.64C37.5685 46.8935 37.064 47.3145 36.7086 47.8511C36.3533 48.3877 36.1626 49.0164 36.16 49.66V50C36.16 51.0609 35.7386 52.0783 34.9884 52.8284C34.2383 53.5786 33.2209 54 32.16 54C31.0991 54 30.0817 53.5786 29.3316 52.8284C28.5814 52.0783 28.16 51.0609 28.16 50V49.82C28.1445 49.158 27.9302 48.516 27.545 47.9774C27.1598 47.4388 26.6215 47.0286 26 46.8C25.3968 46.5338 24.7276 46.4544 24.0788 46.572C23.43 46.6896 22.8314 46.9989 22.36 47.46L22.24 47.58C21.8685 47.9519 21.4274 48.2469 20.9418 48.4482C20.4562 48.6495 19.9357 48.7531 19.41 48.7531C18.8843 48.7531 18.3638 48.6495 17.8782 48.4482C17.3926 48.2469 16.9515 47.9519 16.58 47.58C16.2081 47.2085 15.9131 46.7674 15.7118 46.2818C15.5105 45.7962 15.4069 45.2757 15.4069 44.75C15.4069 44.2243 15.5105 43.7038 15.7118 43.2182C15.9131 42.7326 16.2081 42.2915 16.58 41.92L16.7 41.8C17.1611 41.3286 17.4704 40.73 17.588 40.0812C17.7056 39.4324 17.6262 38.7632 17.36 38.16C17.1065 37.5685 16.6855 37.064 16.1489 36.7086C15.6124 36.3533 14.9836 36.1626 14.34 36.16H14C12.9391 36.16 11.9217 35.7386 11.1716 34.9884C10.4214 34.2383 10 33.2209 10 32.16C10 31.0991 10.4214 30.0817 11.1716 29.3316C11.9217 28.5814 12.9391 28.16 14 28.16H14.18C14.842 28.1445 15.484 27.9302 16.0226 27.545C16.5612 27.1598 16.9714 26.6215 17.2 26C17.4662 25.3968 17.5456 24.7276 17.428 24.0788C17.3104 23.43 17.0011 22.8314 16.54 22.36L16.42 22.24C16.0481 21.8685 15.7531 21.4274 15.5518 20.9418C15.3505 20.4562 15.2469 19.9357 15.2469 19.41C15.2469 18.8843 15.3505 18.3638 15.5518 17.8782C15.7531 17.3926 16.0481 16.9515 16.42 16.58C16.7915 16.2081 17.2326 15.9131 17.7182 15.7118C18.2038 15.5105 18.7243 15.4069 19.25 15.4069C19.7757 15.4069 20.2962 15.5105 20.7818 15.7118C21.2674 15.9131 21.7085 16.2081 22.08 16.58L22.2 16.7C22.6714 17.1611 23.27 17.4704 23.9188 17.588C24.5676 17.7056 25.2368 17.6262 25.84 17.36H26C26.5915 17.1065 27.096 16.6855 27.4514 16.1489C27.8067 15.6124 27.9974 14.9836 28 14.34V14C28 12.9391 28.4214 11.9217 29.1716 11.1716C29.9217 10.4214 30.9391 10 32 10C33.0609 10 34.0783 10.4214 34.8284 11.1716C35.5786 11.9217 36 12.9391 36 14V14.18C36.0026 14.8236 36.1933 15.4524 36.5486 15.9889C36.904 16.5255 37.4085 16.9465 38 17.2C38.6032 17.4662 39.2724 17.5456 39.9212 17.428C40.57 17.3104 41.1686 17.0011 41.64 16.54L41.76 16.42C42.1315 16.0481 42.5726 15.7531 43.0582 15.5518C43.5438 15.3505 44.0643 15.2469 44.59 15.2469C45.1157 15.2469 45.6362 15.3505 46.1218 15.5518C46.6074 15.7531 47.0485 16.0481 47.42 16.42C47.7919 16.7915 48.0869 17.2326 48.2882 17.7182C48.4895 18.2038 48.5931 18.7243 48.5931 19.25C48.5931 19.7757 48.4895 20.2962 48.2882 20.7818C48.0869 21.2674 47.7919 21.7085 47.42 22.08L47.3 22.2C46.8389 22.6714 46.5296 23.27 46.412 23.9188C46.2944 24.5676 46.3738 25.2368 46.64 25.84V26C46.8935 26.5915 47.3145 27.096 47.8511 27.4514C48.3877 27.8067 49.0164 27.9974 49.66 28H50C51.0609 28 52.0783 28.4214 52.8284 29.1716C53.5786 29.9217 54 30.9391 54 32C54 33.0609 53.5786 34.0783 52.8284 34.8284C52.0783 35.5786 51.0609 36 50 36H49.82C49.1764 36.0026 48.5477 36.1933 48.0111 36.5486C47.4745 36.904 47.0535 37.4085 46.8 38Z" stroke="#03FBFF" stroke-width="4" stroke-linecap="round" stroke-linejoin="round"/>
</mask>
<g mask="url(#mask0_22_58)">
<path d="M22.5 23L-1 40L11 66.5H54L65 43.5L45 23H22.5Z" fill="#FFF679" fill-opacity="0.25"/>
<path d="M22.5 32L-1 50.7586L11 80H54L65 54.6207L45 32H22.5Z" fill="#FFF679" fill-opacity="0.25"/>
<path d="M22.5 44L-1 62.7586L11 92H54L65 66.6207L45 44H22.5Z" fill="#FFF679" fill-opacity="0.25"/>
<path d="M22.5 42L-1 60.7586L11 90H54L65 64.6207L45 42H22.5Z" fill="#FFF679" fill-opacity="0.25"/>
</g>
</svg>
