<svg width="169" height="124" viewBox="0 0 169 124" fill="none" xmlns="http://www.w3.org/2000/svg">
<path d="M84 122V7.29347C84 7.29347 68.3261 7.29528 56.7693 4.23127C51.5129 2.83765 45.9277 2.24504 41.4003 2.01308C36.1496 1.74407 32.0667 5.65986 32.0667 10.4059V122H84Z" fill="#9DEFFF"/>
<path d="M32.0667 122L32.0667 75.1153H12C6.47715 75.1153 2 79.1556 2 84.1397V112.976C2 117.96 6.47716 122 12 122L32.0667 122Z" fill="#494852"/>
<path d="M84 122V7.29347C84 7.29347 99.6739 7.29528 111.231 4.23127C116.487 2.83765 122.072 2.24504 126.6 2.01308C131.85 1.74407 135.933 5.65986 135.933 10.4059V122H84Z" fill="#9DEFFF"/>
<path d="M135.933 122V75.1153H157C162.523 75.1153 167 79.1557 167 84.1397V112.976C167 117.96 162.523 122 157 122L135.933 122Z" fill="#494852"/>
<mask id="mask0_25_304" style="mask-type:alpha" maskUnits="userSpaceOnUse" x="2" y="2" width="165" height="120">
<path d="M84 122V7.29347C84 7.29347 68.3261 7.29528 56.7693 4.23127C51.5129 2.83765 45.9277 2.24504 41.4003 2.01308C36.1496 1.74407 32.0667 5.65986 32.0667 10.4059V122H84Z" fill="#FFF679"/>
<path d="M32.0667 122L32.0667 75.1153H12C6.47715 75.1153 2 79.1556 2 84.1397V112.976C2 117.96 6.47716 122 12 122L32.0667 122Z" fill="#494852"/>
<path d="M84 122V7.29347C84 7.29347 99.6739 7.29528 111.231 4.23127C116.487 2.83765 122.072 2.24504 126.6 2.01308C131.85 1.74407 135.933 5.65986 135.933 10.4059V122H84Z" fill="#FFF679"/>
<path d="M135.933 122V75.1153H157C162.523 75.1153 167 79.1557 167 84.1397V112.976C167 117.96 162.523 122 157 122L135.933 122Z" fill="#494852"/>
</mask>
<g mask="url(#mask0_25_304)">
<path d="M19 1.87885H141.395V36.8861H19V1.87885Z" fill="url(#paint0_linear_25_304)"/>
</g>
<path d="M126.549 1.01465C132.337 0.718231 136.934 5.05439 136.934 10.4062V74.1152H157C162.976 74.1152 168 78.5093 168 84.1396V112.976C168 118.606 162.976 123 157 123H12C6.02393 123 1.00002 118.606 1 112.976V84.1396C1.00003 78.5092 6.02393 74.1152 12 74.1152H31.0664V10.4062C31.0664 5.05439 35.663 0.718233 41.4512 1.01465C46.0156 1.2485 51.6766 1.84657 57.0254 3.26465C62.7134 4.77267 69.4485 5.53304 74.79 5.91406C77.4546 6.10412 79.7606 6.19871 81.3994 6.24609C82.2187 6.26978 82.871 6.28221 83.3174 6.28809C83.5403 6.29102 83.7118 6.29225 83.8271 6.29297C83.8849 6.29333 83.9291 6.29288 83.958 6.29297C83.9723 6.29301 83.9832 6.29394 83.9902 6.29395H84.0098C84.0168 6.29394 84.0277 6.29301 84.042 6.29297C84.0709 6.29288 84.1151 6.29333 84.1729 6.29297C84.2882 6.29225 84.4597 6.29102 84.6826 6.28809C85.129 6.28221 85.7814 6.26978 86.6006 6.24609C88.2394 6.19871 90.5454 6.10412 93.21 5.91406C98.5515 5.53304 105.287 4.77267 110.975 3.26465C116.323 1.84656 121.984 1.2485 126.549 1.01465Z" stroke="black" stroke-width="2"/>
<path d="M67.792 92.0083H67.724L60.584 91.6343C60.176 91.6003 59.904 91.2943 59.904 90.8863L61.298 63.9923C61.298 63.6523 61.604 63.3463 61.978 63.3463H62.046L68.268 63.6523C69.628 63.2103 70.988 62.9723 72.314 62.9723C78.604 62.9723 84.282 67.6303 84.282 74.1923C84.282 80.4823 79.998 84.8683 72.926 84.8683C71.498 84.8683 70.104 84.6643 68.812 84.2903L68.472 91.3283C68.438 91.7023 68.132 92.0083 67.792 92.0083ZM69.526 70.3843L69.152 77.5243C69.9 77.8643 70.852 78.1023 71.77 78.1023C75.51 78.1023 75.51 74.4643 75.51 74.2263C75.51 71.8463 73.606 70.1803 71.09 70.1803C70.614 70.1803 70.07 70.2483 69.526 70.3843ZM107.972 91.7363H89.2378C88.8638 91.7363 88.5918 91.3623 88.5918 90.9203V85.3443C88.5918 84.7663 88.6938 84.2223 89.2038 84.0863C94.9158 82.4883 98.0098 78.3403 98.0098 75.0423C98.0098 72.4583 96.1398 70.4183 92.1958 70.4183C91.4818 70.4183 90.6658 70.4863 89.8158 70.6223C89.7478 70.6223 89.6118 70.6563 89.4418 70.6563C89.0678 70.6563 88.5918 70.5543 88.5238 69.9423L87.9798 64.8763V64.6723C87.9798 64.1963 88.1838 63.7883 88.5238 63.6863C90.5978 63.1763 92.5018 62.9383 94.2358 62.9383C102.464 62.9383 106.578 68.2763 106.578 73.8183C106.578 77.5923 104.674 81.4343 100.798 83.6783C100.594 83.8143 100.492 83.9163 100.492 84.0183C100.492 84.1543 100.696 84.2563 100.866 84.2563H100.9L108.04 84.1883C108.448 84.1883 108.72 84.5283 108.72 85.0043V90.9203C108.72 91.3963 108.38 91.7363 107.972 91.7363Z" fill="#432EBC"/>
<defs>
<linearGradient id="paint0_linear_25_304" x1="80.1976" y1="-0.621669" x2="80.1976" y2="50.9515" gradientUnits="userSpaceOnUse">
<stop offset="0.145734" stop-color="#9DEFFF"/>
<stop offset="0.610558" stop-color="#BCBFF3"/>
<stop offset="1" stop-color="#439ABC"/>
</linearGradient>
</defs>
</svg>
