<svg width="1152" height="648" viewBox="0 0 1152 648" fill="none" xmlns="http://www.w3.org/2000/svg">
<g clip-path="url(#clip0_22_70)">
<rect width="1152" height="648" fill="#A6B3BF"/>
<path d="M1152 647L-47 -27.5L588.5 -171L1241 -74.5L1230 721.5L1152 647Z" fill="#718596" fill-opacity="0.3"/>
<path d="M1152 -4.5L-47 670L588.5 813.5L1241 717L1230 -79L1152 -4.5Z" fill="#718596" fill-opacity="0.3"/>
<rect x="87" y="49" width="977" height="550" rx="10" fill="#CBD0D5" stroke="black" stroke-width="5"/>
<mask id="path-4-inside-1_22_70" fill="white">
<rect x="87" y="49" width="977" height="550" rx="10"/>
</mask>
<rect x="87" y="49" width="977" height="550" rx="10" stroke="#8EB8E2" stroke-width="60" mask="url(#path-4-inside-1_22_70)"/>
<rect x="87" y="49" width="977" height="550" rx="10" stroke="black" stroke-width="5"/>
<mask id="mask0_22_70" style="mask-type:alpha" maskUnits="userSpaceOnUse" x="84" y="46" width="983" height="556">
<rect x="87" y="49" width="977" height="550" rx="10" fill="#CBD0D5" stroke="black" stroke-width="5"/>
</mask>
<g mask="url(#mask0_22_70)">
<path d="M742 49H409C397.954 49 389 57.9375 389 68.9832L389 179.315C389 250.188 488.157 294.66 577.103 294.998C666.589 295.338 762 250.188 762 179.315V68.9901C762 57.9444 753.046 49 742 49Z" fill="#3D3857" stroke="#2C455D" stroke-opacity="0.3" stroke-width="30"/>
<path d="M726 69H426L426 173.888C426 230.932 505.751 266.726 577.289 266.998C649.262 267.272 726 230.932 726 173.888V69Z" fill="#140E36" fill-opacity="0.3"/>
<path d="M700 82H451L451 168.877C451 216.125 517.193 245.773 576.57 245.999C636.307 246.226 700 216.125 700 168.877V82Z" fill="#140E36" fill-opacity="0.3"/>
<path d="M553.28 160.14C553.28 176.64 537.02 186.12 524.84 186.12C511.16 186.12 499.16 176.04 499.16 161.1C499.16 157.8 499.76 154.26 501.02 150.54C504.92 139.32 516.32 134.28 526.88 134.28C546.08 134.28 553.28 150.12 553.28 160.14ZM526.88 172.86C534.02 172.86 538.16 166.86 538.16 160.08C538.16 154.14 534.98 147.18 526.64 147.18C517.94 147.18 514.94 154.62 514.94 160.08C514.94 167.7 520.7 172.86 526.88 172.86ZM593.338 134.88H605.338C606.118 134.88 606.778 135.54 606.838 136.32C607.078 140.28 607.318 147.06 607.318 153.84C607.318 157.92 607.258 162.06 606.958 165.54C605.878 179.4 594.298 186.36 583.018 186.36C572.038 186.36 561.358 179.82 560.638 166.44L559.138 138.12V138C559.138 137.22 559.738 136.62 560.458 136.56L572.638 135.96H572.758C573.478 135.96 574.078 136.56 574.138 137.28C575.578 165.06 575.278 157.98 575.578 164.64C575.818 169.5 579.538 171.9 583.378 171.9C587.338 171.9 591.358 169.32 591.778 164.22C592.018 161.4 592.078 157.56 592.078 153.42C592.078 148.02 591.898 142.02 591.658 136.56V136.44C591.658 135.18 592.738 134.88 593.338 134.88ZM640.414 185.1L627.694 185.76H627.574C626.794 185.76 626.194 185.1 626.194 184.38L624.394 150.12L614.554 150.66C613.714 150.66 612.994 150.06 612.994 149.28L612.454 138.18V138.06C612.454 137.34 613.054 136.74 613.834 136.68L625.054 136.08L648.814 134.82C649.594 134.82 650.374 135.42 650.374 136.26L650.914 147.24C650.914 148.02 650.314 148.74 649.474 148.8L639.994 149.28L641.794 183.6V183.66C641.794 184.44 641.134 185.04 640.414 185.1Z" fill="white"/>
</g>
</g>
<defs>
<clipPath id="clip0_22_70">
<rect width="1152" height="648" fill="white"/>
</clipPath>
</defs>
</svg>
