<svg width="169" height="124" viewBox="0 0 169 124" fill="none" xmlns="http://www.w3.org/2000/svg">
<path d="M84 122V7.29347C84 7.29347 68.3261 7.29528 56.7693 4.23127C51.5129 2.83765 45.9277 2.24504 41.4003 2.01308C36.1496 1.74407 32.0667 5.65986 32.0667 10.4059V122H84Z" fill="#FFF679"/>
<path d="M32.0667 122L32.0667 75.1153H12C6.47715 75.1153 2 79.1556 2 84.1397V112.976C2 117.96 6.47716 122 12 122L32.0667 122Z" fill="#494852"/>
<path d="M84 122V7.29347C84 7.29347 99.6739 7.29528 111.231 4.23127C116.487 2.83765 122.072 2.24504 126.6 2.01308C131.85 1.74407 135.933 5.65986 135.933 10.4059V122H84Z" fill="#FFF679"/>
<path d="M135.933 122V75.1153H157C162.523 75.1153 167 79.1557 167 84.1397V112.976C167 117.96 162.523 122 157 122L135.933 122Z" fill="#494852"/>
<mask id="mask0_25_295" style="mask-type:alpha" maskUnits="userSpaceOnUse" x="2" y="2" width="165" height="120">
<path d="M84 122V7.29347C84 7.29347 68.3261 7.29528 56.7693 4.23127C51.5129 2.83765 45.9277 2.24504 41.4003 2.01308C36.1496 1.74407 32.0667 5.65986 32.0667 10.4059V122H84Z" fill="#FFF679"/>
<path d="M32.0667 122L32.0667 75.1153H12C6.47715 75.1153 2 79.1556 2 84.1397V112.976C2 117.96 6.47716 122 12 122L32.0667 122Z" fill="#494852"/>
<path d="M84 122V7.29347C84 7.29347 99.6739 7.29528 111.231 4.23127C116.487 2.83765 122.072 2.24504 126.6 2.01308C131.85 1.74407 135.933 5.65986 135.933 10.4059V122H84Z" fill="#FFF679"/>
<path d="M135.933 122V75.1153H157C162.523 75.1153 167 79.1557 167 84.1397V112.976C167 117.96 162.523 122 157 122L135.933 122Z" fill="#494852"/>
</mask>
<g mask="url(#mask0_25_295)">
<path d="M19 1.87878H141.395V36.886H19V1.87878Z" fill="url(#paint0_linear_25_295)"/>
<path d="M104.088 88.5353L97.1183 88.8791H97.0503C96.6423 88.8791 96.2684 88.5353 96.2684 88.1602L95.2484 70.5315L92.6645 70.6566H92.6305C92.2565 70.6566 91.9165 70.3127 91.9165 69.8751L91.5765 63.9364V63.8739C91.5765 63.4988 91.9165 63.1863 92.3245 63.155L102.626 62.6549H102.694C103.102 62.6549 103.442 62.9987 103.476 63.3738L104.87 87.7538V87.8164C104.87 88.1914 104.53 88.5353 104.088 88.5353Z" fill="#C517AE"/>
<path d="M67.8877 89.0354H67.8197L60.68 88.6916C60.272 88.6603 60 88.379 60 88.004L61.3939 63.2801C61.3939 62.9675 61.6999 62.6862 62.0739 62.6862H62.1419L68.3637 62.9675C69.7236 62.5612 71.0836 62.3424 72.4095 62.3424C78.6993 62.3424 84.3771 66.6245 84.3771 72.657C84.3771 78.4395 80.0932 82.4716 73.0215 82.4716C71.5936 82.4716 70.1996 82.284 68.9077 81.9402L68.5677 88.4103C68.5337 88.7541 68.2277 89.0354 67.8877 89.0354ZM69.6216 69.1563L69.2476 75.7202C69.9956 76.0327 70.9476 76.2515 71.8655 76.2515C75.6054 76.2515 75.6054 72.9071 75.6054 72.6883C75.6054 70.5003 73.7015 68.9688 71.1856 68.9688C70.7096 68.9688 70.1656 69.0313 69.6216 69.1563Z" fill="#C517AE"/>
</g>
<path d="M126.549 1.01465C132.337 0.718231 136.934 5.05439 136.934 10.4062V74.1152H157C162.976 74.1152 168 78.5093 168 84.1396V112.976C168 118.606 162.976 123 157 123H12C6.02393 123 1.00002 118.606 1 112.976V84.1396C1.00003 78.5092 6.02393 74.1152 12 74.1152H31.0664V10.4062C31.0664 5.05439 35.663 0.718233 41.4512 1.01465C46.0156 1.2485 51.6766 1.84657 57.0254 3.26465C62.7134 4.77267 69.4485 5.53304 74.79 5.91406C77.4546 6.10412 79.7606 6.19871 81.3994 6.24609C82.2187 6.26978 82.871 6.28221 83.3174 6.28809C83.5403 6.29102 83.7118 6.29225 83.8271 6.29297C83.8849 6.29333 83.9291 6.29288 83.958 6.29297C83.9723 6.29301 83.9832 6.29394 83.9902 6.29395H84.0098C84.0168 6.29394 84.0277 6.29301 84.042 6.29297C84.0709 6.29288 84.1151 6.29333 84.1729 6.29297C84.2882 6.29225 84.4597 6.29102 84.6826 6.28809C85.129 6.28221 85.7814 6.26978 86.6006 6.24609C88.2394 6.19871 90.5454 6.10412 93.21 5.91406C98.5515 5.53304 105.287 4.77267 110.975 3.26465C116.323 1.84656 121.984 1.2485 126.549 1.01465Z" stroke="black" stroke-width="2"/>
<defs>
<linearGradient id="paint0_linear_25_295" x1="80.1976" y1="-0.62173" x2="80.1976" y2="50.9514" gradientUnits="userSpaceOnUse">
<stop offset="0.145734" stop-color="#F8EC4C"/>
<stop offset="0.610558" stop-color="#FFD781"/>
<stop offset="1" stop-color="#FEC063"/>
</linearGradient>
</defs>
</svg>
