<svg width="48" height="48" viewBox="0 0 48 48" fill="none" xmlns="http://www.w3.org/2000/svg">
<path d="M38 24H10M10 24L24 38M10 24L24 10" stroke="#220D96" stroke-width="20" stroke-linecap="round" stroke-linejoin="round"/>
<path d="M38 24H10M10 24L24 38M10 24L24 10" stroke="#03FBFF" stroke-width="4" stroke-linecap="round" stroke-linejoin="round"/>
<mask id="mask0_45_64" style="mask-type:alpha" maskUnits="userSpaceOnUse" x="8" y="8" width="32" height="32">
<path d="M38 24H10M10 24L24 38M10 24L24 10" stroke="#1E1E1E" stroke-width="4" stroke-linecap="round" stroke-linejoin="round"/>
</mask>
<g mask="url(#mask0_45_64)">
<path d="M12 26.5L5 39.5L23.5 47.5L58 39.5L65 9.5L38.5 -7L23.5 9.5L12 26.5Z" fill="#FFF679" fill-opacity="0.25"/>
<path d="M21 26.5L14 39.5L32.5 47.5L67 39.5L74 9.5L47.5 -7L32.5 9.5L21 26.5Z" fill="#FFF679" fill-opacity="0.25"/>
<path d="M29 20.5L22 33.5L40.5 41.5L75 33.5L82 3.5L55.5 -13L40.5 3.5L29 20.5Z" fill="#FFF679" fill-opacity="0.25"/>
<path d="M39 13.5L32 26.5L50.5 34.5L85 26.5L92 -3.5L65.5 -20L50.5 -3.5L39 13.5Z" fill="#FFF679" fill-opacity="0.25"/>
</g>
</svg>
