<svg width="60" height="60" viewBox="0 0 60 60" fill="none" xmlns="http://www.w3.org/2000/svg">
<path d="M30 50C41.0457 50 50 41.0457 50 30C50 18.9543 41.0457 10 30 10C18.9543 10 10 18.9543 10 30C10 41.0457 18.9543 50 30 50Z" fill="#220D96"/>
<path d="M24.18 24C24.6502 22.6633 25.5783 21.5362 26.7999 20.8183C28.0215 20.1003 29.4578 19.8379 30.8544 20.0774C32.2509 20.317 33.5176 21.043 34.4302 22.1271C35.3427 23.2111 35.8421 24.583 35.84 26C35.84 30 29.84 32 29.84 32" fill="#220D96"/>
<path d="M24.18 24C24.6502 22.6633 25.5783 21.5362 26.7999 20.8183C28.0215 20.1003 29.4578 19.8379 30.8544 20.0774C32.2509 20.317 33.5176 21.043 34.4302 22.1271C35.3427 23.2111 35.8421 24.583 35.84 26C35.84 30 29.84 32 29.84 32M30 40H30.02M50 30C50 41.0457 41.0457 50 30 50C18.9543 50 10 41.0457 10 30C10 18.9543 18.9543 10 30 10C41.0457 10 50 18.9543 50 30Z" stroke="#220D96" stroke-width="20" stroke-linecap="round" stroke-linejoin="round"/>
<path d="M30 50C41.0457 50 50 41.0457 50 30C50 18.9543 41.0457 10 30 10C18.9543 10 10 18.9543 10 30C10 41.0457 18.9543 50 30 50Z" fill="#432EBC"/>
<path d="M24.18 24C24.6502 22.6633 25.5783 21.5362 26.7999 20.8183C28.0215 20.1003 29.4578 19.8379 30.8544 20.0774C32.2509 20.317 33.5176 21.043 34.4302 22.1271C35.3427 23.2111 35.8421 24.583 35.84 26C35.84 30 29.84 32 29.84 32" fill="#432EBC"/>
<path d="M24.18 24C24.6502 22.6633 25.5783 21.5362 26.7999 20.8183C28.0215 20.1003 29.4578 19.8379 30.8544 20.0774C32.2509 20.317 33.5176 21.043 34.4302 22.1271C35.3427 23.2111 35.8421 24.583 35.84 26C35.84 30 29.84 32 29.84 32M30 40H30.02M50 30C50 41.0457 41.0457 50 30 50C18.9543 50 10 41.0457 10 30C10 18.9543 18.9543 10 30 10C41.0457 10 50 18.9543 50 30Z" stroke="#03FBFF" stroke-width="4" stroke-linecap="round" stroke-linejoin="round"/>
<mask id="mask0_44_47" style="mask-type:alpha" maskUnits="userSpaceOnUse" x="8" y="8" width="44" height="44">
<path d="M24.18 24C24.6502 22.6633 25.5783 21.5362 26.7999 20.8183C28.0215 20.1003 29.4578 19.8379 30.8544 20.0774C32.2509 20.317 33.5176 21.043 34.4302 22.1271C35.3427 23.2111 35.8421 24.583 35.84 26C35.84 30 29.84 32 29.84 32M30 40H30.02M50 30C50 41.0457 41.0457 50 30 50C18.9543 50 10 41.0457 10 30C10 18.9543 18.9543 10 30 10C41.0457 10 50 18.9543 50 30Z" stroke="#1E1E1E" stroke-width="4" stroke-linecap="round" stroke-linejoin="round"/>
</mask>
<g mask="url(#mask0_44_47)">
<path d="M24.5 18H0.5L-5 35.5L7.5 58L56.5 63L64 38.5L42.5 28L24.5 18Z" fill="#FFF679" fill-opacity="0.25"/>
<path d="M27.5 27H3.5L-2 44.5L10.5 67L59.5 72L67 47.5L45.5 37L27.5 27Z" fill="#FFF679" fill-opacity="0.25"/>
<path d="M31.5 33H7.5L2 50.5L14.5 73L63.5 78L71 53.5L49.5 43L31.5 33Z" fill="#FFF679" fill-opacity="0.25"/>
<path d="M26.5 38H2.5L-3 55.5L9.5 78L58.5 83L66 58.5L44.5 48L26.5 38Z" fill="#FFF679" fill-opacity="0.25"/>
</g>
</svg>
