<svg width="60" height="60" viewBox="0 0 60 60" fill="none" xmlns="http://www.w3.org/2000/svg">
<path d="M26 36V24M34 36V24M50 30C50 41.0457 41.0457 50 30 50C18.9543 50 10 41.0457 10 30C10 18.9543 18.9543 10 30 10C41.0457 10 50 18.9543 50 30Z" stroke="#220D96" stroke-width="20" stroke-linecap="round" stroke-linejoin="round"/>
<path d="M26 36V24M34 36V24M50 30C50 41.0457 41.0457 50 30 50C18.9543 50 10 41.0457 10 30C10 18.9543 18.9543 10 30 10C41.0457 10 50 18.9543 50 30Z" stroke="#03FBFF" stroke-width="4" stroke-linecap="round" stroke-linejoin="round"/>
<mask id="mask0_56_18" style="mask-type:alpha" maskUnits="userSpaceOnUse" x="8" y="8" width="44" height="44">
<path d="M26 36V24M34 36V24M50 30C50 41.0457 41.0457 50 30 50C18.9543 50 10 41.0457 10 30C10 18.9543 18.9543 10 30 10C41.0457 10 50 18.9543 50 30Z" stroke="#03FBFF" stroke-width="4" stroke-linecap="round" stroke-linejoin="round"/>
</mask>
<g mask="url(#mask0_56_18)">
<path opacity="0.25" d="M15 23L-5 37L-0.5 60H61L71.5 28.5L48 19L15 23Z" fill="#FFF679"/>
<path opacity="0.25" d="M15 33L-5 47L-0.5 70H61L71.5 38.5L48 29L15 33Z" fill="#FFF679"/>
<path opacity="0.25" d="M12 40L-8 54L-3.5 77H58L68.5 45.5L45 36L12 40Z" fill="#FFF679"/>
<path opacity="0.25" d="M12 47L-8 61L-3.5 84H58L68.5 52.5L45 43L12 47Z" fill="#FFF679"/>
</g>
</svg>
