<svg width="1024" height="768" viewBox="0 0 1024 768" fill="none" xmlns="http://www.w3.org/2000/svg">
<path d="M400.067 406.363C403.519 408.61 400.549 413.8 396.614 412.397L292.114 375.145C291.895 375.068 291.644 375.144 291.505 375.331L225.755 464.133C223.272 467.486 217.92 464.842 219.524 461.054L261.982 360.743C262.071 360.532 261.998 360.295 261.806 360.17L170.136 300.496C166.685 298.249 169.654 293.059 173.589 294.461L278.088 331.713C278.307 331.791 278.56 331.715 278.698 331.528L344.449 242.726C346.932 239.373 352.283 242.017 350.68 245.805L308.222 346.116C308.133 346.327 308.205 346.563 308.397 346.688L400.067 406.363Z" fill="#220D96" stroke="#220D96" stroke-width="3"/>
<path d="M274.398 349.725C278.409 348.619 280.961 353.998 277.376 356.003L223.384 386.214C223.183 386.326 223.094 386.558 223.168 386.775L243.362 446.344C244.688 450.255 239.141 452.528 236.928 448.979L203.234 394.94C203.111 394.743 202.866 394.648 202.642 394.71L142.22 411.364C138.208 412.469 135.657 407.091 139.241 405.085L193.234 374.875C193.434 374.763 193.523 374.531 193.45 374.313L173.255 314.746C171.929 310.834 177.477 308.561 179.69 312.11L213.383 366.148C213.506 366.345 213.751 366.441 213.975 366.379L274.398 349.725Z" fill="#220D96" stroke="#220D96" stroke-width="3"/>
<path d="M629.678 410.008C625.743 411.41 622.773 406.22 626.225 403.973L717.895 344.299C718.087 344.174 718.159 343.937 718.07 343.726L675.612 243.415C674.009 239.627 679.36 236.983 681.843 240.337L747.594 329.139C747.732 329.326 747.984 329.402 748.203 329.324L852.703 292.072C856.638 290.669 859.607 295.859 856.156 298.106L764.486 357.781C764.294 357.906 764.221 358.142 764.31 358.354L806.768 458.665C808.371 462.453 803.02 465.097 800.537 461.743L734.786 372.941C734.648 372.754 734.396 372.678 734.177 372.756L629.678 410.008Z" fill="#220D96" stroke="#220D96" stroke-width="3"/>
<path d="M749.044 351.689C745.459 349.683 748.011 344.306 752.022 345.412L812.444 362.069C812.668 362.131 812.913 362.035 813.036 361.837L846.733 307.801C848.946 304.252 854.493 306.525 853.167 310.437L832.97 370.003C832.896 370.221 832.985 370.453 833.185 370.566L887.176 400.778C890.76 402.784 888.209 408.162 884.198 407.056L823.776 390.399C823.552 390.337 823.307 390.433 823.184 390.631L789.487 444.667C787.274 448.216 781.727 445.943 783.053 442.031L803.25 382.465C803.324 382.247 803.235 382.014 803.035 381.902L749.044 351.689Z" fill="#220D96" stroke="#220D96" stroke-width="3"/>
<path d="M322.919 210.856C320.255 207.72 324.637 203.648 328.011 206.123L514.145 342.689C514.333 342.827 514.598 342.827 514.786 342.689L699.734 207.575C703.107 205.11 707.477 209.172 704.826 212.306L559.424 384.17C559.276 384.344 559.277 384.591 559.425 384.766L706.387 557.731C709.051 560.867 704.669 564.939 701.295 562.464L515.161 425.899C514.973 425.761 514.707 425.761 514.519 425.898L329.572 561.013C326.199 563.477 321.828 559.415 324.48 556.281L469.881 384.418C470.029 384.243 470.029 383.997 469.881 383.823L322.919 210.856Z" fill="#220D96" stroke="#220D96" stroke-width="3"/>
<path d="M219.944 380.222C218.141 381.23 217.338 383.321 218.001 385.278L236.821 440.789L205.422 390.43C204.349 388.71 202.248 387.85 200.284 388.304L200.094 388.352L143.668 403.905L194.089 375.693L194.255 375.595C195.941 374.553 196.675 372.532 196.032 370.636L177.213 315.124L208.612 365.483C209.719 367.259 211.921 368.119 213.939 367.563L270.366 352.009L219.944 380.222Z" fill="#FFF679" stroke="#220D96" stroke-width="5"/>
<path d="M809.897 363.252C811.914 363.808 814.117 362.948 815.224 361.173L846.624 310.819L827.803 366.326C827.139 368.283 827.942 370.374 829.745 371.383L880.161 399.596L823.74 384.041L823.55 383.993C821.585 383.539 819.485 384.4 818.412 386.12L787.012 436.474L805.833 380.967C806.497 379.01 805.694 376.919 803.891 375.91L753.473 347.697L809.897 363.252Z" fill="#FFF679" stroke="#220D96" stroke-width="5"/>
<path d="M510.285 343.124C511.976 344.365 514.362 344.367 516.056 343.129L697.603 210.498L554.875 379.202C553.543 380.776 553.545 382.993 554.88 384.564L699.112 554.317L516.436 420.289L516.275 420.176C514.596 419.05 512.307 419.085 510.666 420.283L329.117 552.915L471.847 384.21C473.178 382.637 473.176 380.42 471.841 378.848L327.609 209.095L510.285 343.124Z" fill="#FFF679" stroke="#220D96" stroke-width="5"/>
<path d="M718.996 344.952C720.726 343.825 721.379 341.692 720.574 339.791L679.739 243.315L742.976 328.722C744.184 330.352 746.351 331.052 748.279 330.454L748.464 330.392L848.946 294.573L760.801 351.953L760.642 352.061C759.031 353.212 758.443 355.272 759.222 357.114L800.057 453.591L736.82 368.183C735.574 366.5 733.305 365.81 731.333 366.513L630.85 402.333L718.996 344.952Z" fill="#03FBFF" stroke="#220D96" stroke-width="5"/>
<path d="M292.375 368.902C290.403 368.199 288.134 368.89 286.888 370.573L223.652 455.98L264.486 359.504C265.266 357.662 264.677 355.601 263.066 354.45L262.907 354.342L174.763 296.962L275.244 332.781L275.429 332.844C277.357 333.441 279.524 332.742 280.732 331.111L343.97 245.704L303.134 342.18C302.329 344.081 302.982 346.215 304.712 347.341L392.859 404.722L292.375 368.902Z" fill="#03FBFF" stroke="#220D96" stroke-width="5"/>
<path d="M341.764 277.946L344.917 273.321C345.908 271.869 347.552 271 349.309 271C351.767 271 353.904 272.685 354.478 275.075L356.5 283.5L361.5 299.5C363.839 304.49 371.203 303.541 372.201 298.122L372.41 296.989C372.47 296.664 372.556 296.344 372.669 296.032L377.946 281.418C378.642 279.491 379.702 277.715 381.068 276.188L385.41 271.336C386.695 269.899 388.671 269.293 390.541 269.76C392.368 270.217 393.804 271.627 394.296 273.444L397.882 286.712C398.293 288.235 398.578 289.789 398.733 291.359L401.944 323.82C402.47 329.142 407.979 332.45 412.923 330.414L417.048 328.716C418.698 328.036 419.519 326.177 418.909 324.5C418.377 323.038 418.929 321.403 420.237 320.562L422.946 318.82C424.28 317.963 425.301 316.698 425.857 315.214L432.472 297.574C433.43 295.019 435.569 293.087 438.208 292.393L441.182 291.61C442.591 291.239 444.087 291.734 444.998 292.872C445.329 293.286 445.567 293.766 445.695 294.28L449.679 310.217C450.482 313.429 453.103 315.866 456.365 316.433L460.812 317.206C461.814 317.381 462.811 316.877 463.266 315.967C463.42 315.66 463.641 315.39 463.912 315.179L465.018 314.319C466.916 312.843 468.098 310.63 468.269 308.232L468.5 305V287.5V281.238C468.5 280.431 468.739 279.641 469.187 278.97C469.395 278.658 469.644 278.376 469.928 278.133L471.359 276.906C472.428 275.99 473.748 275.417 475.148 275.261L476.359 275.127C477.099 275.045 477.846 275.207 478.484 275.59C479.434 276.161 480.047 277.158 480.126 278.263L480.5 283.5L481 293C481 296.321 485.016 297.985 487.364 295.636L488.685 294.315C488.894 294.106 489.124 293.917 489.371 293.753L492.059 291.96C493.005 291.33 494.092 290.941 495.223 290.828L496.506 290.699C497.768 290.573 499.02 291.02 499.917 291.917C500.617 292.617 501.54 293.049 502.525 293.139L509.775 293.798C510.699 293.882 511.328 292.88 510.85 292.084C510.635 291.724 510.635 291.276 510.85 290.916L511.532 289.78C511.839 289.269 512.276 288.85 512.798 288.565L515.64 287.014C516.845 286.357 518.236 286.123 519.589 286.348L519.913 286.402C520.302 286.467 520.68 286.59 521.033 286.766L521.293 286.896C522.066 287.283 522.654 287.961 522.927 288.78C522.976 288.927 523.035 289.069 523.104 289.207L524.873 292.746C525.623 294.245 526.518 295.666 527.547 296.989L528.441 298.139C529.144 299.043 529.957 299.856 530.861 300.559L530.99 300.659C532.957 302.189 535.315 303.132 537.794 303.379C538.596 303.46 539.404 303.466 540.208 303.399L545 303H550.241C553.146 303 555.5 300.646 555.5 297.741V297.653C555.5 296.895 555.677 296.147 556.016 295.468C556.642 294.217 557.774 293.294 559.127 292.933L563.078 291.879C563.958 291.645 564.897 291.897 565.541 292.541C565.842 292.842 566.214 293.063 566.623 293.184L586.72 299.122C587.561 299.37 588.449 299.41 589.309 299.238L590.019 299.096C590.336 299.033 590.663 299.041 590.976 299.119C591.887 299.347 592.84 298.967 593.346 298.176L602.823 283.342C603.606 282.116 604.288 280.828 604.861 279.491L605.5 278L606.478 275.718C606.822 274.914 607 274.049 607 273.175V272.802C607 271.328 607.586 269.914 608.628 268.872C609.202 268.298 609.896 267.856 610.659 267.579L613.901 266.4C614.623 266.137 615.398 266.05 616.16 266.145L617.204 266.276C618.312 266.414 619.257 267.144 619.672 268.18C619.886 268.716 619.945 269.301 619.842 269.869L619.06 274.17C619.02 274.39 618.965 274.606 618.894 274.818C618.109 277.173 619.281 279.733 621.576 280.678L628.391 283.485C632.179 285.044 636.508 284.494 639.785 282.036C640.261 281.679 640.764 281.359 641.289 281.079L644.352 279.445C646.765 278.159 649.388 277.315 652.098 276.954C654.353 276.653 656.641 276.69 658.885 277.064L661.938 277.573C665.628 278.188 669.215 279.312 672.596 280.914C675.521 282.3 678.27 284.032 680.782 286.073L685 289.5L691.327 295.375C691.766 295.783 692.077 296.309 692.223 296.891C692.402 297.607 692.319 298.363 691.989 299.023L691.566 299.868C690.884 301.231 689.681 302.261 688.228 302.723L682.694 304.484C680.613 305.146 678.381 305.164 676.29 304.537C675.105 304.182 673.99 303.626 672.993 302.895L667 298.5L657.309 291.011C656.46 290.356 655.409 290 654.337 290C651.68 290 649.5 292.154 649.5 294.811C649.5 295.592 649.69 296.361 650.054 297.052L652.495 301.69C653.823 304.213 655.556 306.5 657.626 308.461L664 314.5L671.328 321.479C673.439 323.489 675.369 325.68 677.098 328.026L679.235 330.926C680.74 332.968 681.997 335.181 682.982 337.519L684.001 339.94C684.99 342.29 685.5 344.813 685.5 347.363V349.301C685.5 352.96 684.095 356.479 681.575 359.132C678.117 362.772 676.826 367.961 678.174 372.797L689.312 412.741C690.014 415.259 692.308 417 694.921 417C696.266 417 697.568 417.465 698.609 418.316L701.106 420.36C702.008 421.097 703.136 421.5 704.301 421.5C705.987 421.5 707.562 420.657 708.497 419.254L709.141 418.288C709.707 417.439 710.087 416.48 710.255 415.473L710.501 413.994C710.827 412.038 711.699 410.214 713.017 408.731L713.239 408.481C714.39 407.186 715.879 406.236 717.539 405.738C719.15 405.255 720.861 405.215 722.492 405.623L723.661 405.915C725.197 406.299 726.615 407.054 727.792 408.113L729.109 409.298C730.313 410.382 731 411.925 731 413.544C731 414.499 731.24 415.44 731.697 416.279L732.949 418.574C733.617 419.798 734.781 420.674 736.142 420.976C737.626 421.306 739.179 420.918 740.334 419.928L740.959 419.392C741.645 418.804 742.447 418.366 743.313 418.106L744.175 417.847C746.024 417.293 747.988 417.247 749.861 417.715L751.736 418.184C752.575 418.394 753.384 418.71 754.144 419.124C756.894 420.624 758.801 423.305 759.316 426.394L759.355 426.628C759.451 427.208 759.5 427.796 759.5 428.384V430.181C759.5 431.996 758.828 433.746 757.614 435.095L756.814 435.985C755.68 437.245 755.246 438.986 755.658 440.63C755.882 441.527 756.345 442.345 756.998 442.998L757.403 443.403C758.746 444.746 760.59 445.5 762.489 445.5C764.104 445.5 765.692 446.038 766.967 447.03L767.305 447.293C768.731 448.402 769.768 449.936 770.264 451.673L770.69 453.164C771.22 455.02 771.237 456.985 770.74 458.85C769.951 461.807 767.933 464.284 765.196 465.652L763.679 466.411C762.904 466.798 762.049 467 761.182 467H760.836C758.812 467 756.983 468.206 756.186 470.066C756.062 470.355 755.966 470.654 755.898 470.961L755.839 471.226C755.309 473.609 755.902 476.103 757.448 477.993L757.594 478.17C758.827 479.677 759.5 481.564 759.5 483.51V485C759.5 486.947 758.868 488.842 757.7 490.4C756 492.666 753.333 494 750.5 494H748.664C746.598 494 744.576 493.406 742.839 492.289L740.328 490.675C739.172 489.932 737.742 489.753 736.438 490.187C734.926 490.691 733.788 491.952 733.442 493.509L733 495.5L732.338 497.817C731.481 500.817 729.475 503.358 726.755 504.888L726.287 505.151C724.164 506.345 721.688 506.754 719.293 506.305C716.548 505.79 714.126 504.19 712.577 501.866L712.236 501.354C711.421 500.131 710.864 498.754 710.602 497.308L710.326 495.795C710.114 494.626 709.55 493.55 708.71 492.71C707.615 491.615 706.13 491 704.581 491H704.215C703.09 491 701.982 491.282 700.995 491.821L698.221 493.334C697.411 493.776 696.544 494.105 695.644 494.313L694.273 494.629C691.908 495.175 689.426 494.533 687.622 492.91C686.256 491.68 684.483 491 682.645 491H649.952C647.357 491 644.801 491.635 642.508 492.849L640.667 493.823C638.619 494.908 636.259 495.252 633.986 494.797C631.429 494.286 629.17 492.802 627.686 490.658L621 481L614.379 473.009C610.508 468.337 603.194 468.841 600 474L597.753 477.457C595.045 481.623 590.701 484.448 585.795 485.233L582.11 485.822C581.384 485.939 580.639 485.856 579.956 485.582C577.801 484.721 576.803 482.234 577.763 480.121L580.742 473.567C580.912 473.193 581 472.788 581 472.377C581 470.788 579.712 469.5 578.123 469.5H574.101C573.065 469.5 572.059 469.147 571.25 468.5C570.441 467.853 569.435 467.5 568.399 467.5H561.51C559.571 467.5 557.699 468.212 556.25 469.5L555.789 469.91C554.636 470.934 553.149 471.5 551.607 471.5H550.414C549.509 471.5 548.64 471.14 548 470.5L547.932 470.432C547.335 469.835 547 469.026 547 468.182V467.121C547 465.95 546.05 465 544.879 465C544.316 465 543.777 465.223 543.379 465.621L542.926 466.074C542.327 466.673 541.54 467.046 540.697 467.13L539.336 467.266C537.815 467.418 536.284 467.102 534.948 466.36L534.538 466.132C533.201 465.39 531.698 465 530.169 465H526.78C522.675 465 518.651 466.145 515.161 468.305L511.34 470.671C510.452 471.22 509.484 471.629 508.471 471.882L507.501 472.125C505.277 472.681 502.922 472.245 501.044 470.931L500.499 470.549C499.523 469.866 498.361 469.5 497.17 469.5H496.805C495.342 469.5 493.952 470.139 493 471.25C492.048 472.361 490.658 473 489.195 473H488.681C485.917 473 483.496 471.15 482.768 468.484L482.69 468.197C482.564 467.734 482.387 467.286 482.162 466.862L478.536 460.013C478.184 459.347 477.679 458.773 477.063 458.339C473.886 456.096 469.5 458.368 469.5 462.258V464.061C469.5 466.178 468.333 468.122 466.466 469.118L464.055 470.404C462.706 471.124 461.2 471.5 459.671 471.5H459.225C457.771 471.5 456.346 471.909 455.113 472.679C453.739 473.538 452.668 474.806 452.051 476.304L451.03 478.785C450.043 481.181 448.224 483.138 445.907 484.297C443.703 485.398 441.187 485.708 438.782 485.174L435.988 484.553C434.337 484.186 432.743 483.598 431.249 482.804L421.417 477.581C418.815 476.198 416.058 475.128 413.205 474.392L402.955 471.746C402.333 471.586 401.774 471.241 401.351 470.758C399.935 469.14 397.358 469.356 396.231 471.187L394.852 473.428C394.618 473.808 394.435 474.216 394.307 474.643L391.5 484L386.952 493.923C386.336 495.267 385.279 496.36 383.957 497.022L381.472 498.264C380.049 498.976 378.319 498.546 377.393 497.251C376.828 496.459 375.937 495.964 374.966 495.903L346.917 494.122C345.651 494.041 344.381 494.206 343.178 494.607C340.519 495.494 337.609 495.205 335.176 493.815L332.476 492.272C332.159 492.091 331.861 491.881 331.584 491.644L331.197 491.312C329.58 489.925 327.265 489.705 325.416 490.762C325.139 490.92 324.878 491.104 324.636 491.312L324.057 491.808C322.434 493.199 321.5 495.23 321.5 497.368C321.5 498.76 321.103 500.124 320.355 501.299L319.552 502.562C318.545 504.143 317.045 505.347 315.284 505.988C313.481 506.643 311.51 506.67 309.69 506.063L308.724 505.741C307.257 505.252 305.904 504.47 304.748 503.442L302.631 501.561C302.211 501.188 301.819 500.783 301.459 500.351L300.709 499.451C299.917 498.501 299.393 497.357 299.189 496.137L298.91 494.457C298.658 492.945 297.591 491.697 296.137 491.212C295.715 491.072 295.273 491 294.829 491H294.728C293.316 491 291.977 491.627 291.074 492.712L290.914 492.903C290.315 493.622 289.537 494.168 288.658 494.488L287.46 494.924C285.533 495.624 283.438 495.717 281.457 495.189L279.388 494.637C277.824 494.22 276.397 493.397 275.253 492.253C274.425 491.425 273.763 490.447 273.302 489.372L273.094 488.885C271.761 485.775 271.809 482.246 273.227 479.174L273.656 478.245C273.884 477.751 274.18 477.29 274.534 476.877L274.667 476.722C276.089 475.063 276.413 472.728 275.498 470.745C274.585 468.767 272.605 467.5 270.426 467.5H269.464C268.179 467.5 266.918 467.151 265.816 466.49L265.452 466.271C263.556 465.134 262.17 463.313 261.579 461.184L261.296 460.165C260.469 457.187 260.904 453.993 262.495 451.342C263.792 449.18 265.779 447.508 268.132 446.603L271 445.5C274.245 444.148 275.665 440.33 274.093 437.186L274 437L272.777 433.942C271.636 431.09 271.64 427.899 272.781 425.048C273.577 423.058 274.899 421.313 276.601 420.011L277.818 419.08C280.683 416.889 284.546 416.523 287.771 418.136L288.674 418.587C292.537 420.519 297.236 419.179 299.5 415.5L302.647 411.679C305.086 408.716 308.724 407 312.562 407C317.427 407 321.874 404.251 324.05 399.9L331.532 384.936C333.823 380.355 335.21 375.375 335.618 370.27L339 328V286.907C339 283.71 339.963 280.587 341.764 277.946Z" fill="#220D96" stroke="#220D96" stroke-width="30"/>
<path d="M618.938 445.334L617.244 448.129L625.618 458.826L625.417 454.286C625.264 451.359 625.024 445.156 624.695 435.675L618.938 445.334ZM643.265 404.453C643.001 413.41 643.042 422.58 643.389 431.96C643.85 441.258 644.491 451.986 645.314 464.145C646.055 475.668 646.524 483.311 646.72 487.074C646.76 487.392 646.725 487.851 646.615 488.452C646.174 490.856 644.503 492.723 641.601 494.054C638.718 495.286 635.895 495.648 633.134 495.142C630.848 494.723 629.206 493.748 628.206 492.219C626.014 488.608 623.651 485.121 621.118 481.758C618.585 478.395 615.218 474.207 611.019 469.192L607.049 464.272C601.397 472.552 597.081 478.645 594.101 482.55C593.159 483.93 591.14 485.009 588.044 485.787C585.062 486.483 582.38 486.612 580 486.176C577.333 485.687 576.165 484.541 576.496 482.738C576.588 482.237 576.841 481.663 577.255 481.014C581.471 474.127 586.412 466.233 592.08 457.335L596.484 450.223C594.563 447.283 593.602 445.813 593.602 445.813C593.064 444.989 592.877 444.127 593.042 443.226C593.355 441.523 594.696 440.113 597.067 438.994C599.455 437.776 601.981 437.152 604.645 437.123C611.327 426.444 617.761 415.512 623.946 404.327C624.584 402.994 625.995 402.011 628.179 401.376C630.476 400.658 632.794 400.359 635.135 400.478C636.846 400.274 638.273 400.277 639.415 400.486C642.082 400.975 643.365 402.297 643.265 404.453Z" fill="#FF5EEA"/>
<path d="M584.965 415.824C583.429 427.472 582.661 438.448 582.661 448.752C582.661 453.744 582.853 458.8 583.237 463.92C583.365 464.304 583.429 464.624 583.429 464.88C583.429 465.072 583.365 465.36 583.237 465.744C583.237 465.808 583.205 465.84 583.141 465.84V466.032C582.757 467.12 581.861 468.08 580.453 468.912C579.045 469.68 577.541 470.128 575.941 470.256C573.381 470.512 571.845 469.84 571.333 468.24C569.093 462.224 565.541 453.904 560.677 443.28L559.525 440.592C559.013 448.592 558.693 457.136 558.565 466.224C558.565 467.568 557.669 468.784 555.877 469.872C554.085 470.896 552.261 471.408 550.405 471.408C549.253 471.408 548.325 471.184 547.621 470.736C546.917 470.288 546.597 469.552 546.661 468.528C547.045 451.12 548.293 434.64 550.405 419.088L550.501 418.704C550.373 417.296 551.237 416.016 553.093 414.864C554.949 413.712 556.805 413.136 558.661 413.136C560.581 413.136 561.765 413.776 562.213 415.056C564.261 420.624 567.301 427.792 571.333 436.56C571.717 430.544 572.389 424.432 573.349 418.224C573.541 416.944 574.565 415.824 576.421 414.864C578.277 413.84 580.101 413.328 581.893 413.328C584.197 413.328 585.221 414.16 584.965 415.824Z" fill="#FF5EEA"/>
<path d="M543.352 460.464C544.312 460.784 544.792 461.36 544.792 462.192C544.792 463.216 544.184 464.336 542.968 465.552C541.624 466.896 539.896 467.568 537.784 467.568C536.76 467.568 535.896 467.44 535.192 467.184C531.8 466.096 528.728 465.552 525.976 465.552C521.176 465.552 516.28 467.088 511.288 470.16C510.456 470.736 509.432 471.216 508.216 471.6C507.064 471.92 505.976 472.08 504.952 472.08C503.992 472.08 503.224 471.92 502.648 471.6C502.072 471.216 501.784 470.64 501.784 469.872C501.784 469.424 501.848 469.04 501.976 468.72C503.832 463.536 505.304 458.864 506.392 454.704C507.544 450.544 508.312 446.32 508.696 442.032C509.272 436.272 509.56 432.048 509.56 429.36C509.56 422.256 508.184 416.816 505.432 413.04C505.112 412.656 504.952 412.144 504.952 411.504C504.952 410.224 505.848 409.04 507.64 407.952C509.432 406.8 511.192 406.224 512.92 406.224C514.072 406.224 514.904 406.48 515.416 406.992C516.248 407.312 516.792 407.824 517.048 408.528C518.648 412.752 520.856 416.336 523.672 419.28C526.488 422.16 529.816 423.6 533.656 423.6C534.36 423.6 535.416 423.472 536.824 423.216C537.72 423.088 538.296 423.024 538.552 423.024C539.64 423.024 540.44 423.28 540.952 423.792C541.528 424.24 541.816 424.88 541.816 425.712C541.816 426.608 541.432 427.504 540.664 428.4C539.96 429.296 539 429.936 537.784 430.32C535.16 431.216 532.536 431.664 529.912 431.664C526.776 431.664 523.768 431.024 520.888 429.744C520.76 433.328 520.6 436.016 520.408 437.808L519.736 443.856C522.232 443.408 524.728 443.024 527.224 442.704L528.568 442.608C531.128 442.608 532.408 443.472 532.408 445.2C532.408 446.352 531.768 447.376 530.488 448.272C529.208 449.168 527.896 449.744 526.552 450C524.568 450.384 521.848 450.8 518.392 451.248C517.688 454.384 516.92 457.328 516.088 460.08C520.312 458.544 524.6 457.776 528.952 457.776C533.752 457.776 538.552 458.672 543.352 460.464Z" fill="#FF5EEA"/>
<path d="M475.79 436.464C478.286 434.48 480.302 432.72 481.838 431.184C483.438 429.648 484.654 428.112 485.486 426.576C482.03 425.68 476.91 424.208 470.126 422.16L469.646 441.648C471.566 440.048 472.686 439.088 473.006 438.768L475.79 436.464ZM491.246 449.904C491.758 448.88 492.846 448.016 494.51 447.312C496.174 446.544 497.774 446.16 499.31 446.16C501.422 446.16 502.478 446.832 502.478 448.176C502.478 448.56 502.382 449.008 502.19 449.52C499.566 455.664 497.582 461.616 496.238 467.376C495.918 468.656 494.99 469.84 493.454 470.928C492.814 471.76 491.822 472.464 490.478 473.04C489.198 473.616 487.918 473.904 486.638 473.904C485.55 473.904 484.654 473.68 483.95 473.232C483.31 472.784 482.958 472.08 482.894 471.12C482.638 466.96 481.262 463.152 478.766 459.696C476.334 456.24 473.198 454 469.358 452.976L468.878 466.896C468.814 468.112 467.79 469.232 465.806 470.256C463.886 471.28 462.03 471.792 460.238 471.792C459.278 471.792 458.51 471.632 457.934 471.312C457.358 470.928 457.07 470.352 457.07 469.584L457.358 456.336C456.526 455.76 456.11 455.088 456.11 454.32C456.11 453.424 456.59 452.56 457.55 451.728C457.87 440.08 458.254 428.464 458.702 416.88C458.766 415.536 459.662 414.384 461.39 413.424C463.182 412.4 464.974 411.888 466.766 411.888C468.11 411.888 469.07 412.208 469.646 412.848C476.622 414.768 483.854 416.88 491.342 419.184C492.494 418.928 493.294 418.8 493.742 418.8C494.83 418.8 495.662 419.056 496.238 419.568C496.878 420.016 497.198 420.72 497.198 421.68C497.198 424.304 496.334 426.736 494.606 428.976C492.878 431.152 490.478 433.584 487.406 436.272L485.486 438C482.414 441.008 479.438 443.664 476.558 445.968C481.806 447.44 486.03 450.352 489.23 454.704C489.486 454.064 490.158 452.464 491.246 449.904Z" fill="#FF5EEA"/>
<path d="M412.492 451.758C413.877 452.012 415.462 452.441 417.246 453.044C413.197 444.648 409.954 437.459 407.518 431.475C405.532 438.439 402.788 446.98 399.288 457.098C399.048 458.073 398.593 459.468 397.921 461.283C400.229 455.614 403.447 452.401 407.576 451.644C409.195 451.347 410.834 451.385 412.492 451.758ZM428.725 430.76C434.13 441.53 440 451.411 446.334 460.403L448.165 462.86C449.659 464.617 450.816 466.139 451.638 467.427C452.445 468.633 452.976 469.931 453.231 471.323C453.621 473.451 453.136 475.825 451.775 478.443C450.399 480.98 448.757 482.974 446.847 484.424C445.687 485.398 444.378 486.019 442.921 486.286C440.492 486.731 437.928 486.439 435.23 485.411C432.597 484.286 429.358 482.596 425.514 480.339C422.806 478.805 420.77 477.74 419.405 477.144C418.491 476.719 416.625 476.13 413.81 475.377C408.856 473.916 404.959 472.515 402.119 471.174C399.361 469.819 397.756 467.913 397.306 465.457C397.186 464.802 397.289 463.768 397.616 462.354C396.588 465.42 395.223 470.07 393.521 476.305C391.396 483.886 390.166 488.131 389.831 489.038C389.189 491.017 387.978 493.312 386.198 495.923C384.402 498.452 382.574 499.888 380.712 500.229C379.74 500.407 378.823 500.195 377.959 499.591C377.287 499.122 376.839 498.274 376.614 497.046C375.983 493.608 377.456 487.034 381.031 477.325C381.235 476.611 381.588 475.573 382.092 474.212L383.818 468.565C387.402 457.077 389.961 448.443 391.495 442.662C392.382 439.284 393.631 434.232 395.243 427.506L397.791 416.759C398.867 412.585 400.063 409.066 401.379 406.201C402.679 403.255 404.538 400.842 406.954 398.96C408.195 397.971 409.423 397.365 410.638 397.143C412.257 396.846 413.573 397.408 414.587 398.83C415.586 400.17 416.638 402.261 417.745 405.105C420.748 413.269 424.408 421.821 428.725 430.76Z" fill="#FF5EEA"/>
<path d="M672.586 303.128C670.838 301.231 667.715 298.639 663.218 295.353C658.836 291.975 655.361 290.129 652.793 289.814C650.739 289.561 649.584 290.471 649.33 292.543C649.241 293.268 649.345 294.543 649.642 296.367C650.069 298.838 651.381 301.313 653.579 303.791C655.79 306.166 658.727 308.998 662.39 312.287C665.397 314.97 667.312 316.782 668.135 317.725C672.171 322.216 675.36 325.973 677.7 328.995C680.052 331.912 682.085 335.317 683.797 339.208C685.624 343.007 686.309 346.772 685.851 350.502C685.546 352.988 684.611 355.502 683.048 358.045C680.087 362.624 675.726 365.874 669.964 367.796C664.304 369.73 658.444 370.325 652.383 369.58C650.329 369.328 648.293 368.921 646.277 368.357C632.599 364.259 620.859 353.301 611.055 335.482C610.554 334.474 610.36 333.503 610.474 332.571C610.754 330.292 612.498 328.403 615.706 326.904C619.029 325.314 622.181 324.702 625.16 325.067C627.419 325.345 628.98 326.22 629.842 327.693C635.143 337.177 640.626 344.318 646.294 349.115C651.486 353.538 656.033 355.99 659.937 356.469C663.121 356.86 664.885 355.657 665.228 352.86C665.47 350.891 664.999 348.362 663.814 345.272C662.617 342.286 660.938 339.398 658.778 336.609C656.618 333.82 653.834 330.586 650.428 326.908L646.707 322.823C646.347 322.358 644.631 320.623 641.559 317.616C639.04 315.204 636.912 312.997 635.177 310.996C633.441 308.996 632.033 306.877 630.952 304.641C629.549 301.63 629.032 298.622 629.401 295.617C629.974 290.955 632.447 286.947 636.821 283.593C641.311 280.149 646.213 278.016 651.527 277.197C654.928 276.668 658.119 276.586 661.098 276.952C666.645 277.633 671.827 279.584 676.646 282.805C681.566 286.038 686.418 290.262 691.2 295.476C692.035 296.314 692.389 297.252 692.262 298.288C692.02 300.256 690.193 301.977 686.779 303.451C683.366 304.925 680.119 305.473 677.037 305.094C674.982 304.842 673.499 304.187 672.586 303.128Z" fill="#FF5EEA"/>
<path d="M608.616 284.112C607.528 284.24 606.536 284.08 605.64 283.632C604.744 283.12 604.296 282.416 604.296 281.52C604.296 281.136 604.392 280.72 604.584 280.272C606.056 277.328 606.792 274.416 606.792 271.536C606.792 270.64 607.56 269.68 609.096 268.656C610.376 267.696 611.976 266.96 613.896 266.448C614.6 266.256 615.4 266.16 616.296 266.16C618.536 266.16 619.688 266.96 619.752 268.56C619.816 270.48 619.592 272.432 619.08 274.416C618.632 276.4 617.928 278.128 616.968 279.6C616.072 280.944 614.888 282 613.416 282.768C611.944 283.536 610.344 283.984 608.616 284.112Z" fill="#FF5EEA"/>
<path d="M572.586 316.464C575.082 314.48 577.098 312.72 578.634 311.184C580.234 309.648 581.45 308.112 582.282 306.576C578.826 305.68 573.706 304.208 566.922 302.16L566.442 321.648C568.362 320.048 569.482 319.088 569.802 318.768L572.586 316.464ZM588.042 329.904C588.554 328.88 589.642 328.016 591.306 327.312C592.97 326.544 594.57 326.16 596.106 326.16C598.218 326.16 599.274 326.832 599.274 328.176C599.274 328.56 599.178 329.008 598.986 329.52C596.362 335.664 594.378 341.616 593.034 347.376C592.714 348.656 591.786 349.84 590.25 350.928C589.61 351.76 588.618 352.464 587.274 353.04C585.994 353.616 584.714 353.904 583.434 353.904C582.346 353.904 581.45 353.68 580.746 353.232C580.106 352.784 579.754 352.08 579.69 351.12C579.434 346.96 578.058 343.152 575.562 339.696C573.13 336.24 569.994 334 566.154 332.976L565.674 346.896C565.61 348.112 564.586 349.232 562.602 350.256C560.682 351.28 558.826 351.792 557.034 351.792C556.074 351.792 555.306 351.632 554.73 351.312C554.154 350.928 553.866 350.352 553.866 349.584L554.154 336.336C553.322 335.76 552.906 335.088 552.906 334.32C552.906 333.424 553.386 332.56 554.346 331.728C554.666 320.08 555.05 308.464 555.498 296.88C555.562 295.536 556.458 294.384 558.186 293.424C559.978 292.4 561.77 291.888 563.562 291.888C564.906 291.888 565.866 292.208 566.442 292.848C573.418 294.768 580.65 296.88 588.138 299.184C589.29 298.928 590.09 298.8 590.538 298.8C591.626 298.8 592.458 299.056 593.034 299.568C593.674 300.016 593.994 300.72 593.994 301.68C593.994 304.304 593.13 306.736 591.402 308.976C589.674 311.152 587.274 313.584 584.202 316.272L582.282 318C579.21 321.008 576.234 323.664 573.354 325.968C578.602 327.44 582.826 330.352 586.026 334.704C586.282 334.064 586.954 332.464 588.042 329.904Z" fill="#FF5EEA"/>
<path d="M549.117 340.464C550.077 340.784 550.557 341.36 550.557 342.192C550.557 343.216 549.949 344.336 548.733 345.552C547.389 346.896 545.661 347.568 543.549 347.568C542.525 347.568 541.661 347.44 540.957 347.184C537.565 346.096 534.493 345.552 531.741 345.552C526.941 345.552 522.045 347.088 517.053 350.16C516.221 350.736 515.197 351.216 513.981 351.6C512.829 351.92 511.741 352.08 510.717 352.08C509.757 352.08 508.989 351.92 508.413 351.6C507.837 351.216 507.549 350.64 507.549 349.872C507.549 349.424 507.613 349.04 507.741 348.72C509.597 343.536 511.069 338.864 512.157 334.704C513.309 330.544 514.077 326.32 514.461 322.032C515.037 316.272 515.325 312.048 515.325 309.36C515.325 302.256 513.949 296.816 511.197 293.04C510.877 292.656 510.717 292.144 510.717 291.504C510.717 290.224 511.613 289.04 513.405 287.952C515.197 286.8 516.957 286.224 518.685 286.224C519.837 286.224 520.669 286.48 521.181 286.992C522.013 287.312 522.557 287.824 522.813 288.528C524.413 292.752 526.621 296.336 529.437 299.28C532.253 302.16 535.581 303.6 539.421 303.6C540.125 303.6 541.181 303.472 542.589 303.216C543.485 303.088 544.061 303.024 544.317 303.024C545.405 303.024 546.205 303.28 546.717 303.792C547.293 304.24 547.581 304.88 547.581 305.712C547.581 306.608 547.197 307.504 546.429 308.4C545.725 309.296 544.765 309.936 543.549 310.32C540.925 311.216 538.301 311.664 535.677 311.664C532.541 311.664 529.533 311.024 526.653 309.744C526.525 313.328 526.365 316.016 526.173 317.808L525.501 323.856C527.997 323.408 530.493 323.024 532.989 322.704L534.333 322.608C536.893 322.608 538.173 323.472 538.173 325.2C538.173 326.352 537.533 327.376 536.253 328.272C534.973 329.168 533.661 329.744 532.317 330C530.333 330.384 527.613 330.8 524.157 331.248C523.453 334.384 522.685 337.328 521.853 340.08C526.077 338.544 530.365 337.776 534.717 337.776C539.517 337.776 544.317 338.672 549.117 340.464Z" fill="#FF5EEA"/>
<path d="M502.416 328.752C503.504 336.752 504.304 342.352 504.816 345.552C505.072 347.152 504.368 348.56 502.704 349.776C501.04 350.992 499.28 351.6 497.424 351.6C496.336 351.6 495.44 351.376 494.736 350.928C494.032 350.416 493.616 349.648 493.488 348.624L492.72 342.384C491.824 335.344 491.088 330.064 490.512 326.544C490.192 324.496 489.744 322.8 489.168 321.456C488.592 320.048 487.664 318.992 486.384 318.288C485.552 317.904 484.592 317.712 483.504 317.712C482.16 317.712 480.656 317.936 478.992 318.384C477.84 327.984 475.952 337.808 473.328 347.856C473.008 349.2 471.856 350.384 469.872 351.408C467.952 352.368 466.096 352.848 464.304 352.848C463.152 352.848 462.288 352.656 461.712 352.272C461.136 351.824 460.976 351.152 461.232 350.256C464.048 340.144 466.064 330.032 467.28 319.92C466 319.92 464.88 319.696 463.92 319.248C462.96 318.736 462.48 318.096 462.48 317.328C462.48 316.432 463.12 315.536 464.4 314.64L468.144 311.952C468.656 306.256 468.912 299.792 468.912 292.56C468.912 288.464 468.816 284.368 468.624 280.272C468.56 278.992 469.392 277.84 471.12 276.816C472.848 275.792 474.64 275.28 476.496 275.28C477.52 275.28 478.352 275.504 478.992 275.952C479.696 276.336 480.08 276.976 480.144 277.872C480.4 282.224 480.528 287.056 480.528 292.368C480.528 296.976 480.464 300.4 480.336 302.64C482.64 300.592 484.88 298.448 487.056 296.208L489.936 293.424C490.832 292.592 491.856 291.92 493.008 291.408C494.16 290.832 495.312 290.544 496.464 290.544C497.168 290.544 497.936 290.736 498.768 291.12C499.6 291.44 500.016 291.92 500.016 292.56C500.016 292.944 499.888 293.296 499.632 293.616C495.728 299.12 490.032 304.784 482.544 310.608C484.656 310.16 486.544 309.936 488.208 309.936C492.88 309.936 496.368 311.472 498.672 314.544C499.696 315.888 500.4 317.36 500.784 318.96C501.232 320.496 501.552 322.032 501.744 323.568C501.936 325.104 502.064 326.16 502.128 326.736L502.416 328.752Z" fill="#FF5EEA"/>
<path d="M435.183 321.456L434.415 323.376L441.135 329.04L440.463 326.256C440.015 324.464 439.119 320.656 437.775 314.832L435.183 321.456ZM446.127 293.424C447.023 298.992 448.143 304.656 449.487 310.416C450.895 316.112 452.591 322.672 454.575 330.096C456.431 337.136 457.647 341.808 458.223 344.112C458.287 344.304 458.319 344.592 458.319 344.976C458.319 346.512 457.455 347.856 455.727 349.008C453.999 350.096 452.207 350.64 450.351 350.64C448.815 350.64 447.631 350.224 446.799 349.392C444.943 347.408 442.991 345.52 440.943 343.728C438.895 341.936 436.207 339.728 432.879 337.104L429.711 334.512C427.023 340.272 424.943 344.528 423.471 347.28C423.023 348.24 421.839 349.136 419.919 349.968C418.063 350.736 416.335 351.12 414.735 351.12C412.943 351.12 412.047 350.544 412.047 349.392C412.047 349.072 412.143 348.688 412.335 348.24C414.255 343.504 416.527 338.064 419.151 331.92L421.167 327.024C419.567 325.424 418.767 324.624 418.767 324.624C418.319 324.176 418.095 323.664 418.095 323.088C418.095 322 418.799 320.976 420.207 320.016C421.615 318.992 423.183 318.32 424.911 318C427.983 310.64 430.863 303.152 433.551 295.536C433.807 294.64 434.607 293.872 435.951 293.232C437.359 292.528 438.831 292.08 440.367 291.888C441.455 291.568 442.383 291.408 443.151 291.408C444.943 291.408 445.935 292.08 446.127 293.424Z" fill="#FF5EEA"/>
<path d="M407.567 359.53C408.717 360.194 409.4 361.407 409.617 363.17C409.833 364.932 409.501 366.941 408.621 369.196C407.73 371.363 406.494 373.259 404.913 374.884C403.321 376.422 401.692 377.293 400.026 377.497C396.343 377.949 393.559 374.847 391.673 368.191C391.019 365.766 390.503 363.012 390.124 359.928C389.93 358.341 389.714 355.863 389.479 352.493L388.701 345.074C388.225 341.197 387.599 335.37 386.822 327.593C386.122 319.718 385.296 311.903 384.344 304.148C382.876 310.321 381.109 318.768 379.043 329.488C378.446 332.602 377.785 335.188 377.058 337.245C376.331 339.303 375.139 341.193 373.482 342.918C371.912 344.631 370.25 345.595 368.496 345.811C365.163 346.22 362.125 344.312 359.381 340.087C356.637 335.862 354.129 331.026 351.858 325.58L351.875 335.507C351.817 344.459 351.631 351.639 351.315 357.045C351.087 362.44 350.421 367.889 349.317 373.392C348.488 377.519 347.37 381.1 345.962 384.135C344.632 387.072 342.607 388.707 339.888 389.041C336.819 389.418 335.09 388.02 334.7 384.847C334.43 382.644 334.779 380.052 335.748 377.07C335.682 377.257 335.616 377.444 335.55 377.631C335.561 377.72 335.522 377.769 335.435 377.78L335.915 375.171C336.38 372.431 336.698 369.216 336.868 365.528C337.361 358.668 337.663 350.983 337.775 342.471L338.092 318.951C338.04 310.549 338.113 302.444 338.311 294.637C338.373 290.067 338.598 286.462 338.986 283.82C339.451 281.079 340.546 278.395 342.27 275.768C343.094 274.504 344.077 273.444 345.218 272.589C346.447 271.722 347.631 271.219 348.771 271.079C350.701 270.842 352.256 271.546 353.437 273.19C354.301 274.425 355.004 276.531 355.548 279.505L356.332 282.629C357.346 285.815 358.573 289.287 360.014 293.046C363.551 302.273 366.597 309.323 369.154 314.198C369.596 311.996 369.878 310.665 369.999 310.203C371.567 302.675 373.024 296.413 374.369 291.418C375.801 286.411 377.672 281.709 379.98 277.31C381.069 275.298 382.365 273.529 383.868 272.003C385.362 270.388 386.941 269.478 388.607 269.274C390.449 269.048 391.846 269.547 392.797 270.772C393.826 271.898 394.509 273.111 394.846 274.412C395.261 275.613 395.784 277.696 396.415 280.66C397.252 284.582 397.99 289.143 398.629 294.343C399.094 298.132 399.627 303.926 400.229 311.724C400.336 313.321 400.492 315.314 400.696 317.705C400.901 320.095 401.198 322.876 401.587 326.049L402.559 335.053C402.916 337.962 403.529 342.225 404.397 347.843L404.785 352.09C405.282 356.143 406.21 358.624 407.567 359.53Z" fill="#FF5EEA"/>
<mask id="mask0_1_3" style="mask-type:alpha" maskUnits="userSpaceOnUse" x="334" y="266" width="359" height="235">
<path d="M618.938 445.334L617.244 448.129L625.618 458.826L625.417 454.286C625.264 451.359 625.024 445.156 624.695 435.675L618.938 445.334ZM643.265 404.453C643.001 413.41 643.042 422.58 643.389 431.96C643.85 441.258 644.491 451.986 645.314 464.145C646.055 475.668 646.524 483.311 646.72 487.074C646.76 487.392 646.725 487.851 646.615 488.452C646.174 490.856 644.503 492.723 641.601 494.054C638.718 495.286 635.895 495.648 633.134 495.142C630.848 494.723 629.206 493.748 628.206 492.219C626.014 488.608 623.651 485.121 621.118 481.758C618.585 478.395 615.218 474.207 611.019 469.192L607.049 464.272C601.397 472.552 597.081 478.645 594.101 482.55C593.159 483.93 591.14 485.009 588.044 485.787C585.062 486.483 582.38 486.612 580 486.176C577.333 485.687 576.165 484.541 576.496 482.738C576.588 482.237 576.841 481.663 577.255 481.014C581.471 474.127 586.412 466.233 592.08 457.335L596.484 450.223C594.563 447.283 593.602 445.813 593.602 445.813C593.064 444.989 592.877 444.127 593.042 443.226C593.355 441.523 594.696 440.113 597.067 438.994C599.455 437.776 601.981 437.152 604.645 437.123C611.327 426.444 617.761 415.512 623.946 404.327C624.584 402.994 625.995 402.011 628.179 401.376C630.476 400.658 632.794 400.359 635.135 400.478C636.846 400.274 638.273 400.277 639.415 400.486C642.082 400.975 643.365 402.297 643.265 404.453Z" fill="#FF27E2"/>
<path d="M584.965 415.824C583.429 427.472 582.661 438.448 582.661 448.752C582.661 453.744 582.853 458.8 583.237 463.92C583.365 464.304 583.429 464.624 583.429 464.88C583.429 465.072 583.365 465.36 583.237 465.744C583.237 465.808 583.205 465.84 583.141 465.84V466.032C582.757 467.12 581.861 468.08 580.453 468.912C579.045 469.68 577.541 470.128 575.941 470.256C573.381 470.512 571.845 469.84 571.333 468.24C569.093 462.224 565.541 453.904 560.677 443.28L559.525 440.592C559.013 448.592 558.693 457.136 558.565 466.224C558.565 467.568 557.669 468.784 555.877 469.872C554.085 470.896 552.261 471.408 550.405 471.408C549.253 471.408 548.325 471.184 547.621 470.736C546.917 470.288 546.597 469.552 546.661 468.528C547.045 451.12 548.293 434.64 550.405 419.088L550.501 418.704C550.373 417.296 551.237 416.016 553.093 414.864C554.949 413.712 556.805 413.136 558.661 413.136C560.581 413.136 561.765 413.776 562.213 415.056C564.261 420.624 567.301 427.792 571.333 436.56C571.717 430.544 572.389 424.432 573.349 418.224C573.541 416.944 574.565 415.824 576.421 414.864C578.277 413.84 580.101 413.328 581.893 413.328C584.197 413.328 585.221 414.16 584.965 415.824Z" fill="#FF27E2"/>
<path d="M543.352 460.464C544.312 460.784 544.792 461.36 544.792 462.192C544.792 463.216 544.184 464.336 542.968 465.552C541.624 466.896 539.896 467.568 537.784 467.568C536.76 467.568 535.896 467.44 535.192 467.184C531.8 466.096 528.728 465.552 525.976 465.552C521.176 465.552 516.28 467.088 511.288 470.16C510.456 470.736 509.432 471.216 508.216 471.6C507.064 471.92 505.976 472.08 504.952 472.08C503.992 472.08 503.224 471.92 502.648 471.6C502.072 471.216 501.784 470.64 501.784 469.872C501.784 469.424 501.848 469.04 501.976 468.72C503.832 463.536 505.304 458.864 506.392 454.704C507.544 450.544 508.312 446.32 508.696 442.032C509.272 436.272 509.56 432.048 509.56 429.36C509.56 422.256 508.184 416.816 505.432 413.04C505.112 412.656 504.952 412.144 504.952 411.504C504.952 410.224 505.848 409.04 507.64 407.952C509.432 406.8 511.192 406.224 512.92 406.224C514.072 406.224 514.904 406.48 515.416 406.992C516.248 407.312 516.792 407.824 517.048 408.528C518.648 412.752 520.856 416.336 523.672 419.28C526.488 422.16 529.816 423.6 533.656 423.6C534.36 423.6 535.416 423.472 536.824 423.216C537.72 423.088 538.296 423.024 538.552 423.024C539.64 423.024 540.44 423.28 540.952 423.792C541.528 424.24 541.816 424.88 541.816 425.712C541.816 426.608 541.432 427.504 540.664 428.4C539.96 429.296 539 429.936 537.784 430.32C535.16 431.216 532.536 431.664 529.912 431.664C526.776 431.664 523.768 431.024 520.888 429.744C520.76 433.328 520.6 436.016 520.408 437.808L519.736 443.856C522.232 443.408 524.728 443.024 527.224 442.704L528.568 442.608C531.128 442.608 532.408 443.472 532.408 445.2C532.408 446.352 531.768 447.376 530.488 448.272C529.208 449.168 527.896 449.744 526.552 450C524.568 450.384 521.848 450.8 518.392 451.248C517.688 454.384 516.92 457.328 516.088 460.08C520.312 458.544 524.6 457.776 528.952 457.776C533.752 457.776 538.552 458.672 543.352 460.464Z" fill="#FF27E2"/>
<path d="M475.79 436.464C478.286 434.48 480.302 432.72 481.838 431.184C483.438 429.648 484.654 428.112 485.486 426.576C482.03 425.68 476.91 424.208 470.126 422.16L469.646 441.648C471.566 440.048 472.686 439.088 473.006 438.768L475.79 436.464ZM491.246 449.904C491.758 448.88 492.846 448.016 494.51 447.312C496.174 446.544 497.774 446.16 499.31 446.16C501.422 446.16 502.478 446.832 502.478 448.176C502.478 448.56 502.382 449.008 502.19 449.52C499.566 455.664 497.582 461.616 496.238 467.376C495.918 468.656 494.99 469.84 493.454 470.928C492.814 471.76 491.822 472.464 490.478 473.04C489.198 473.616 487.918 473.904 486.638 473.904C485.55 473.904 484.654 473.68 483.95 473.232C483.31 472.784 482.958 472.08 482.894 471.12C482.638 466.96 481.262 463.152 478.766 459.696C476.334 456.24 473.198 454 469.358 452.976L468.878 466.896C468.814 468.112 467.79 469.232 465.806 470.256C463.886 471.28 462.03 471.792 460.238 471.792C459.278 471.792 458.51 471.632 457.934 471.312C457.358 470.928 457.07 470.352 457.07 469.584L457.358 456.336C456.526 455.76 456.11 455.088 456.11 454.32C456.11 453.424 456.59 452.56 457.55 451.728C457.87 440.08 458.254 428.464 458.702 416.88C458.766 415.536 459.662 414.384 461.39 413.424C463.182 412.4 464.974 411.888 466.766 411.888C468.11 411.888 469.07 412.208 469.646 412.848C476.622 414.768 483.854 416.88 491.342 419.184C492.494 418.928 493.294 418.8 493.742 418.8C494.83 418.8 495.662 419.056 496.238 419.568C496.878 420.016 497.198 420.72 497.198 421.68C497.198 424.304 496.334 426.736 494.606 428.976C492.878 431.152 490.478 433.584 487.406 436.272L485.486 438C482.414 441.008 479.438 443.664 476.558 445.968C481.806 447.44 486.03 450.352 489.23 454.704C489.486 454.064 490.158 452.464 491.246 449.904Z" fill="#FF27E2"/>
<path d="M412.492 451.758C413.877 452.012 415.462 452.441 417.246 453.044C413.197 444.648 409.954 437.459 407.518 431.475C405.532 438.439 402.788 446.98 399.288 457.098C399.048 458.073 398.593 459.468 397.921 461.283C400.229 455.614 403.447 452.401 407.576 451.644C409.195 451.347 410.834 451.385 412.492 451.758ZM428.725 430.76C434.13 441.53 440 451.411 446.334 460.403L448.165 462.86C449.659 464.617 450.816 466.139 451.638 467.427C452.445 468.633 452.976 469.931 453.231 471.323C453.621 473.451 453.136 475.825 451.775 478.443C450.399 480.98 448.757 482.974 446.847 484.424C445.687 485.398 444.378 486.019 442.921 486.286C440.492 486.731 437.928 486.439 435.23 485.411C432.597 484.286 429.358 482.596 425.514 480.339C422.806 478.805 420.77 477.74 419.405 477.144C418.491 476.719 416.625 476.13 413.81 475.377C408.856 473.916 404.959 472.515 402.119 471.174C399.361 469.819 397.756 467.913 397.306 465.457C397.186 464.802 397.289 463.768 397.616 462.354C396.588 465.42 395.223 470.07 393.521 476.305C391.396 483.886 390.166 488.131 389.831 489.038C389.189 491.017 387.978 493.312 386.198 495.923C384.402 498.452 382.574 499.888 380.712 500.229C379.74 500.407 378.823 500.195 377.959 499.591C377.287 499.122 376.839 498.274 376.614 497.046C375.983 493.608 377.456 487.034 381.031 477.325C381.235 476.611 381.588 475.573 382.092 474.212L383.818 468.565C387.402 457.077 389.961 448.443 391.495 442.662C392.382 439.284 393.631 434.232 395.243 427.506L397.791 416.759C398.867 412.585 400.063 409.066 401.379 406.201C402.679 403.255 404.538 400.842 406.954 398.96C408.195 397.971 409.423 397.365 410.638 397.143C412.257 396.846 413.573 397.408 414.587 398.83C415.586 400.17 416.638 402.261 417.745 405.105C420.748 413.269 424.408 421.821 428.725 430.76Z" fill="#FF27E2"/>
<path d="M672.586 303.128C670.838 301.231 667.715 298.639 663.218 295.353C658.836 291.975 655.361 290.129 652.793 289.814C650.739 289.561 649.584 290.471 649.33 292.543C649.241 293.268 649.345 294.543 649.642 296.367C650.069 298.838 651.381 301.313 653.579 303.791C655.79 306.166 658.727 308.998 662.39 312.287C665.397 314.97 667.312 316.782 668.135 317.725C672.171 322.216 675.36 325.973 677.7 328.995C680.052 331.912 682.085 335.317 683.797 339.208C685.624 343.007 686.309 346.772 685.851 350.502C685.546 352.988 684.611 355.502 683.048 358.045C680.087 362.624 675.726 365.874 669.964 367.796C664.304 369.73 658.444 370.325 652.383 369.58C650.329 369.328 648.293 368.921 646.277 368.357C632.599 364.259 620.859 353.301 611.055 335.482C610.554 334.474 610.36 333.503 610.474 332.571C610.754 330.292 612.498 328.403 615.706 326.904C619.029 325.314 622.181 324.702 625.16 325.067C627.419 325.345 628.98 326.22 629.842 327.693C635.143 337.177 640.626 344.318 646.294 349.115C651.486 353.538 656.033 355.99 659.937 356.469C663.121 356.86 664.885 355.657 665.228 352.86C665.47 350.891 664.999 348.362 663.814 345.272C662.617 342.286 660.938 339.398 658.778 336.609C656.618 333.82 653.834 330.586 650.428 326.908L646.707 322.823C646.347 322.358 644.631 320.623 641.559 317.616C639.04 315.204 636.912 312.997 635.177 310.996C633.441 308.996 632.033 306.877 630.952 304.641C629.549 301.63 629.032 298.622 629.401 295.617C629.974 290.955 632.447 286.947 636.821 283.593C641.311 280.149 646.213 278.016 651.527 277.197C654.928 276.668 658.119 276.586 661.098 276.952C666.645 277.633 671.827 279.584 676.646 282.805C681.566 286.038 686.418 290.262 691.2 295.476C692.035 296.314 692.389 297.252 692.262 298.288C692.02 300.256 690.193 301.977 686.779 303.451C683.366 304.925 680.119 305.473 677.037 305.094C674.982 304.842 673.499 304.187 672.586 303.128Z" fill="#FF27E2"/>
<path d="M608.616 284.112C607.528 284.24 606.536 284.08 605.64 283.632C604.744 283.12 604.296 282.416 604.296 281.52C604.296 281.136 604.392 280.72 604.584 280.272C606.056 277.328 606.792 274.416 606.792 271.536C606.792 270.64 607.56 269.68 609.096 268.656C610.376 267.696 611.976 266.96 613.896 266.448C614.6 266.256 615.4 266.16 616.296 266.16C618.536 266.16 619.688 266.96 619.752 268.56C619.816 270.48 619.592 272.432 619.08 274.416C618.632 276.4 617.928 278.128 616.968 279.6C616.072 280.944 614.888 282 613.416 282.768C611.944 283.536 610.344 283.984 608.616 284.112Z" fill="#FF27E2"/>
<path d="M572.586 316.464C575.082 314.48 577.098 312.72 578.634 311.184C580.234 309.648 581.45 308.112 582.282 306.576C578.826 305.68 573.706 304.208 566.922 302.16L566.442 321.648C568.362 320.048 569.482 319.088 569.802 318.768L572.586 316.464ZM588.042 329.904C588.554 328.88 589.642 328.016 591.306 327.312C592.97 326.544 594.57 326.16 596.106 326.16C598.218 326.16 599.274 326.832 599.274 328.176C599.274 328.56 599.178 329.008 598.986 329.52C596.362 335.664 594.378 341.616 593.034 347.376C592.714 348.656 591.786 349.84 590.25 350.928C589.61 351.76 588.618 352.464 587.274 353.04C585.994 353.616 584.714 353.904 583.434 353.904C582.346 353.904 581.45 353.68 580.746 353.232C580.106 352.784 579.754 352.08 579.69 351.12C579.434 346.96 578.058 343.152 575.562 339.696C573.13 336.24 569.994 334 566.154 332.976L565.674 346.896C565.61 348.112 564.586 349.232 562.602 350.256C560.682 351.28 558.826 351.792 557.034 351.792C556.074 351.792 555.306 351.632 554.73 351.312C554.154 350.928 553.866 350.352 553.866 349.584L554.154 336.336C553.322 335.76 552.906 335.088 552.906 334.32C552.906 333.424 553.386 332.56 554.346 331.728C554.666 320.08 555.05 308.464 555.498 296.88C555.562 295.536 556.458 294.384 558.186 293.424C559.978 292.4 561.77 291.888 563.562 291.888C564.906 291.888 565.866 292.208 566.442 292.848C573.418 294.768 580.65 296.88 588.138 299.184C589.29 298.928 590.09 298.8 590.538 298.8C591.626 298.8 592.458 299.056 593.034 299.568C593.674 300.016 593.994 300.72 593.994 301.68C593.994 304.304 593.13 306.736 591.402 308.976C589.674 311.152 587.274 313.584 584.202 316.272L582.282 318C579.21 321.008 576.234 323.664 573.354 325.968C578.602 327.44 582.826 330.352 586.026 334.704C586.282 334.064 586.954 332.464 588.042 329.904Z" fill="#FF27E2"/>
<path d="M549.117 340.464C550.077 340.784 550.557 341.36 550.557 342.192C550.557 343.216 549.949 344.336 548.733 345.552C547.389 346.896 545.661 347.568 543.549 347.568C542.525 347.568 541.661 347.44 540.957 347.184C537.565 346.096 534.493 345.552 531.741 345.552C526.941 345.552 522.045 347.088 517.053 350.16C516.221 350.736 515.197 351.216 513.981 351.6C512.829 351.92 511.741 352.08 510.717 352.08C509.757 352.08 508.989 351.92 508.413 351.6C507.837 351.216 507.549 350.64 507.549 349.872C507.549 349.424 507.613 349.04 507.741 348.72C509.597 343.536 511.069 338.864 512.157 334.704C513.309 330.544 514.077 326.32 514.461 322.032C515.037 316.272 515.325 312.048 515.325 309.36C515.325 302.256 513.949 296.816 511.197 293.04C510.877 292.656 510.717 292.144 510.717 291.504C510.717 290.224 511.613 289.04 513.405 287.952C515.197 286.8 516.957 286.224 518.685 286.224C519.837 286.224 520.669 286.48 521.181 286.992C522.013 287.312 522.557 287.824 522.813 288.528C524.413 292.752 526.621 296.336 529.437 299.28C532.253 302.16 535.581 303.6 539.421 303.6C540.125 303.6 541.181 303.472 542.589 303.216C543.485 303.088 544.061 303.024 544.317 303.024C545.405 303.024 546.205 303.28 546.717 303.792C547.293 304.24 547.581 304.88 547.581 305.712C547.581 306.608 547.197 307.504 546.429 308.4C545.725 309.296 544.765 309.936 543.549 310.32C540.925 311.216 538.301 311.664 535.677 311.664C532.541 311.664 529.533 311.024 526.653 309.744C526.525 313.328 526.365 316.016 526.173 317.808L525.501 323.856C527.997 323.408 530.493 323.024 532.989 322.704L534.333 322.608C536.893 322.608 538.173 323.472 538.173 325.2C538.173 326.352 537.533 327.376 536.253 328.272C534.973 329.168 533.661 329.744 532.317 330C530.333 330.384 527.613 330.8 524.157 331.248C523.453 334.384 522.685 337.328 521.853 340.08C526.077 338.544 530.365 337.776 534.717 337.776C539.517 337.776 544.317 338.672 549.117 340.464Z" fill="#FF27E2"/>
<path d="M502.416 328.752C503.504 336.752 504.304 342.352 504.816 345.552C505.072 347.152 504.368 348.56 502.704 349.776C501.04 350.992 499.28 351.6 497.424 351.6C496.336 351.6 495.44 351.376 494.736 350.928C494.032 350.416 493.616 349.648 493.488 348.624L492.72 342.384C491.824 335.344 491.088 330.064 490.512 326.544C490.192 324.496 489.744 322.8 489.168 321.456C488.592 320.048 487.664 318.992 486.384 318.288C485.552 317.904 484.592 317.712 483.504 317.712C482.16 317.712 480.656 317.936 478.992 318.384C477.84 327.984 475.952 337.808 473.328 347.856C473.008 349.2 471.856 350.384 469.872 351.408C467.952 352.368 466.096 352.848 464.304 352.848C463.152 352.848 462.288 352.656 461.712 352.272C461.136 351.824 460.976 351.152 461.232 350.256C464.048 340.144 466.064 330.032 467.28 319.92C466 319.92 464.88 319.696 463.92 319.248C462.96 318.736 462.48 318.096 462.48 317.328C462.48 316.432 463.12 315.536 464.4 314.64L468.144 311.952C468.656 306.256 468.912 299.792 468.912 292.56C468.912 288.464 468.816 284.368 468.624 280.272C468.56 278.992 469.392 277.84 471.12 276.816C472.848 275.792 474.64 275.28 476.496 275.28C477.52 275.28 478.352 275.504 478.992 275.952C479.696 276.336 480.08 276.976 480.144 277.872C480.4 282.224 480.528 287.056 480.528 292.368C480.528 296.976 480.464 300.4 480.336 302.64C482.64 300.592 484.88 298.448 487.056 296.208L489.936 293.424C490.832 292.592 491.856 291.92 493.008 291.408C494.16 290.832 495.312 290.544 496.464 290.544C497.168 290.544 497.936 290.736 498.768 291.12C499.6 291.44 500.016 291.92 500.016 292.56C500.016 292.944 499.888 293.296 499.632 293.616C495.728 299.12 490.032 304.784 482.544 310.608C484.656 310.16 486.544 309.936 488.208 309.936C492.88 309.936 496.368 311.472 498.672 314.544C499.696 315.888 500.4 317.36 500.784 318.96C501.232 320.496 501.552 322.032 501.744 323.568C501.936 325.104 502.064 326.16 502.128 326.736L502.416 328.752Z" fill="#FF27E2"/>
<path d="M435.183 321.456L434.415 323.376L441.135 329.04L440.463 326.256C440.015 324.464 439.119 320.656 437.775 314.832L435.183 321.456ZM446.127 293.424C447.023 298.992 448.143 304.656 449.487 310.416C450.895 316.112 452.591 322.672 454.575 330.096C456.431 337.136 457.647 341.808 458.223 344.112C458.287 344.304 458.319 344.592 458.319 344.976C458.319 346.512 457.455 347.856 455.727 349.008C453.999 350.096 452.207 350.64 450.351 350.64C448.815 350.64 447.631 350.224 446.799 349.392C444.943 347.408 442.991 345.52 440.943 343.728C438.895 341.936 436.207 339.728 432.879 337.104L429.711 334.512C427.023 340.272 424.943 344.528 423.471 347.28C423.023 348.24 421.839 349.136 419.919 349.968C418.063 350.736 416.335 351.12 414.735 351.12C412.943 351.12 412.047 350.544 412.047 349.392C412.047 349.072 412.143 348.688 412.335 348.24C414.255 343.504 416.527 338.064 419.151 331.92L421.167 327.024C419.567 325.424 418.767 324.624 418.767 324.624C418.319 324.176 418.095 323.664 418.095 323.088C418.095 322 418.799 320.976 420.207 320.016C421.615 318.992 423.183 318.32 424.911 318C427.983 310.64 430.863 303.152 433.551 295.536C433.807 294.64 434.607 293.872 435.951 293.232C437.359 292.528 438.831 292.08 440.367 291.888C441.455 291.568 442.383 291.408 443.151 291.408C444.943 291.408 445.935 292.08 446.127 293.424Z" fill="#FF27E2"/>
<path d="M407.567 359.53C408.717 360.194 409.4 361.407 409.617 363.17C409.833 364.932 409.501 366.941 408.621 369.196C407.73 371.363 406.494 373.259 404.913 374.884C403.321 376.422 401.692 377.293 400.026 377.497C396.343 377.949 393.559 374.847 391.673 368.191C391.019 365.766 390.503 363.012 390.124 359.928C389.93 358.341 389.714 355.863 389.479 352.493L388.701 345.074C388.225 341.197 387.599 335.37 386.822 327.593C386.122 319.718 385.296 311.903 384.344 304.148C382.876 310.321 381.109 318.768 379.043 329.488C378.446 332.602 377.785 335.188 377.058 337.245C376.331 339.303 375.139 341.193 373.482 342.918C371.912 344.631 370.25 345.595 368.496 345.811C365.163 346.22 362.125 344.312 359.381 340.087C356.637 335.862 354.129 331.026 351.858 325.58L351.875 335.507C351.817 344.459 351.631 351.639 351.315 357.045C351.087 362.44 350.421 367.889 349.317 373.392C348.488 377.519 347.37 381.1 345.962 384.135C344.632 387.072 342.607 388.707 339.888 389.041C336.819 389.418 335.09 388.02 334.7 384.847C334.43 382.644 334.779 380.052 335.748 377.07C335.682 377.257 335.616 377.444 335.55 377.631C335.561 377.72 335.522 377.769 335.435 377.78L335.915 375.171C336.38 372.431 336.698 369.216 336.868 365.528C337.361 358.668 337.663 350.983 337.775 342.471L338.092 318.951C338.04 310.549 338.113 302.444 338.311 294.637C338.373 290.067 338.598 286.462 338.986 283.82C339.451 281.079 340.546 278.395 342.27 275.768C343.094 274.504 344.077 273.444 345.218 272.589C346.447 271.722 347.631 271.219 348.771 271.079C350.701 270.842 352.256 271.546 353.437 273.19C354.301 274.425 355.004 276.531 355.548 279.505L356.332 282.629C357.346 285.815 358.573 289.287 360.014 293.046C363.551 302.273 366.597 309.323 369.154 314.198C369.596 311.996 369.878 310.665 369.999 310.203C371.567 302.675 373.024 296.413 374.369 291.418C375.801 286.411 377.672 281.709 379.98 277.31C381.069 275.298 382.365 273.529 383.868 272.003C385.362 270.388 386.941 269.478 388.607 269.274C390.449 269.048 391.846 269.547 392.797 270.772C393.826 271.898 394.509 273.111 394.846 274.412C395.261 275.613 395.784 277.696 396.415 280.66C397.252 284.582 397.99 289.143 398.629 294.343C399.094 298.132 399.627 303.926 400.229 311.724C400.336 313.321 400.492 315.314 400.696 317.705C400.901 320.095 401.198 322.876 401.587 326.049L402.559 335.053C402.916 337.962 403.529 342.225 404.397 347.843L404.785 352.09C405.282 356.143 406.21 358.624 407.567 359.53Z" fill="#FF27E2"/>
</mask>
<g mask="url(#mask0_1_3)">
<path d="M283.225 390.595L281.786 390.193C261.15 384.424 241.294 401.524 243.939 422.787L250.376 474.551C252.154 488.846 263.841 499.86 278.217 500.787L502.994 515.279C510.409 515.757 517.739 513.466 523.562 508.849L711.609 359.76C722.872 350.83 726.219 335.168 719.59 322.415L670.48 227.938C664.356 216.157 651.216 209.802 638.178 212.318L594.897 220.668C588.269 221.947 582.266 225.423 577.859 230.536L552.223 260.272C545.892 267.615 536.402 271.446 526.747 270.556L496.466 267.765C492.289 267.38 488.078 267.876 484.104 269.219L445.081 282.413C436.759 285.227 430.088 291.547 426.83 299.706L415.178 328.881C411.554 337.955 403.738 344.696 394.229 346.947L344.07 358.822C338.979 360.027 334.292 362.542 330.474 366.118L311.809 383.599C304.158 390.765 293.321 393.417 283.225 390.595Z" fill="#03FBFF" fill-opacity="0.25"/>
<path d="M300.808 412.212L292.726 411.74C275.963 410.762 261.66 423.731 261 440.51L260.627 449.981C259.908 468.259 275.573 482.92 293.763 480.994L470.8 462.248C475.609 461.739 480.223 460.075 484.25 457.397L660.693 340.089C673.674 331.459 677.883 314.326 670.378 300.664L652.879 268.804C646.123 256.505 631.745 250.532 618.263 254.424L581.857 264.934C577.683 266.139 573.82 268.236 570.537 271.08L540.493 297.1C535.702 301.25 529.72 303.776 523.404 304.315L493.973 306.827C491.148 307.068 488.372 307.708 485.727 308.728L446.628 323.81C440.958 325.998 436.085 329.856 432.656 334.875L417.319 357.319C413.544 362.844 408.029 366.949 401.652 368.979L352.164 384.737C348.986 385.748 346 387.283 343.327 389.276L320.495 406.309C314.832 410.534 307.86 412.624 300.808 412.212Z" fill="#03FBFF" fill-opacity="0.25"/>
<path d="M300.904 408.358L285.126 409.011C271.812 409.561 260.753 419.466 258.746 432.64C255.87 451.508 272.397 467.612 291.185 464.248L459.152 434.173C462.872 433.507 466.433 432.144 469.648 430.156L649.111 319.132C662.867 310.623 667.4 292.74 659.359 278.706L652.041 265.934C644.968 253.588 630.194 247.909 616.672 252.339L579.995 264.354C576.779 265.407 573.764 266.997 571.079 269.056L537.275 294.977C533.339 297.995 528.716 299.99 523.82 300.784L492.656 305.834C490.445 306.192 488.282 306.797 486.205 307.637L444.767 324.4C440.27 326.219 436.281 329.101 433.143 332.799L414.471 354.803C411.026 358.862 406.563 361.931 401.54 363.696L349.615 381.936C347.172 382.795 344.849 383.966 342.706 385.421L316.517 403.204C311.894 406.342 306.487 408.128 300.904 408.358Z" fill="#03FBFF" fill-opacity="0.25"/>
<path d="M312.221 421.488L282.616 427.156C276.738 428.281 271.819 432.282 269.519 437.806C263.785 451.579 276.506 465.878 290.852 461.786L454.513 415.108C456.745 414.472 458.896 413.578 460.922 412.446L650.882 306.27C662.069 300.017 665.666 285.625 658.736 274.845C653.047 265.995 641.934 262.344 632.105 266.097L588.529 282.737C586.594 283.476 584.741 284.413 582.999 285.534L543.674 310.834C541.11 312.484 538.308 313.733 535.367 314.539L499.813 324.276L453.142 344.353C450.344 345.557 447.746 347.179 445.437 349.165L420.961 370.214C418.435 372.387 415.564 374.123 412.467 375.352L357.222 397.278C355.752 397.861 354.331 398.559 352.972 399.366L321.896 417.818C318.908 419.592 315.634 420.834 312.221 421.488Z" fill="#03FBFF" fill-opacity="0.25"/>
</g>
<path d="M311 469.25C318.318 469.25 324.25 463.318 324.25 456C324.25 448.682 318.318 442.75 311 442.75C303.682 442.75 297.75 448.682 297.75 456C297.75 463.318 303.682 469.25 311 469.25Z" stroke="#03FBFF" stroke-width="4" stroke-linecap="round" stroke-linejoin="round"/>
<path d="M343.683 469.25C343.095 470.582 342.92 472.06 343.18 473.493C343.44 474.925 344.123 476.247 345.141 477.288L345.406 477.553C346.227 478.374 346.879 479.348 347.323 480.42C347.768 481.493 347.997 482.642 347.997 483.803C347.997 484.964 347.768 486.113 347.323 487.186C346.879 488.258 346.227 489.232 345.406 490.052C344.585 490.874 343.611 491.525 342.539 491.97C341.467 492.414 340.317 492.643 339.156 492.643C337.995 492.643 336.846 492.414 335.774 491.97C334.701 491.525 333.727 490.874 332.907 490.052L332.642 489.787C331.601 488.769 330.279 488.086 328.846 487.826C327.413 487.567 325.935 487.742 324.603 488.33C323.297 488.89 322.183 489.819 321.398 491.004C320.613 492.189 320.192 493.578 320.187 494.999V495.75C320.187 498.093 319.256 500.34 317.599 501.996C315.943 503.653 313.696 504.583 311.353 504.583C309.011 504.583 306.764 503.653 305.107 501.996C303.451 500.34 302.52 498.093 302.52 495.75V495.352C302.486 493.891 302.013 492.473 301.162 491.283C300.311 490.094 299.122 489.188 297.75 488.683C296.418 488.095 294.94 487.92 293.507 488.18C292.075 488.44 290.753 489.123 289.712 490.141L289.447 490.406C288.626 491.227 287.652 491.879 286.58 492.323C285.507 492.768 284.358 492.997 283.197 492.997C282.036 492.997 280.887 492.768 279.814 492.323C278.742 491.879 277.768 491.227 276.947 490.406C276.126 489.585 275.475 488.611 275.03 487.539C274.586 486.467 274.357 485.317 274.357 484.156C274.357 482.995 274.586 481.846 275.03 480.774C275.475 479.701 276.126 478.727 276.947 477.907L277.212 477.642C278.231 476.601 278.914 475.279 279.174 473.846C279.433 472.413 279.258 470.935 278.67 469.603C278.11 468.297 277.18 467.183 275.996 466.398C274.811 465.613 273.422 465.192 272.001 465.187H271.25C268.907 465.187 266.66 464.256 265.004 462.599C263.347 460.943 262.417 458.696 262.417 456.353C262.417 454.011 263.347 451.764 265.004 450.107C266.66 448.451 268.907 447.52 271.25 447.52H271.647C273.109 447.486 274.527 447.013 275.717 446.162C276.906 445.311 277.812 444.122 278.317 442.75C278.905 441.418 279.08 439.94 278.82 438.507C278.56 437.075 277.877 435.753 276.859 434.712L276.594 434.447C275.773 433.626 275.121 432.652 274.677 431.58C274.232 430.507 274.003 429.358 274.003 428.197C274.003 427.036 274.232 425.887 274.677 424.814C275.121 423.742 275.773 422.768 276.594 421.947C277.415 421.126 278.389 420.475 279.461 420.03C280.533 419.586 281.683 419.357 282.844 419.357C284.005 419.357 285.154 419.586 286.226 420.03C287.299 420.475 288.273 421.126 289.093 421.947L289.358 422.212C290.399 423.231 291.721 423.914 293.154 424.174C294.587 424.433 296.065 424.258 297.397 423.67H297.75C299.056 423.11 300.17 422.18 300.955 420.996C301.74 419.811 302.161 418.422 302.167 417.001V416.25C302.167 413.907 303.097 411.66 304.754 410.004C306.41 408.347 308.657 407.417 311 407.417C313.343 407.417 315.59 408.347 317.246 410.004C318.903 411.66 319.833 413.907 319.833 416.25V416.647C319.839 418.069 320.26 419.457 321.045 420.642C321.83 421.827 322.944 422.757 324.25 423.317C325.582 423.905 327.06 424.08 328.493 423.82C329.925 423.56 331.247 422.877 332.288 421.859L332.553 421.594C333.374 420.773 334.348 420.121 335.42 419.677C336.493 419.232 337.642 419.003 338.803 419.003C339.964 419.003 341.113 419.232 342.186 419.677C343.258 420.121 344.232 420.773 345.052 421.594C345.874 422.415 346.525 423.389 346.97 424.461C347.414 425.533 347.643 426.683 347.643 427.844C347.643 429.005 347.414 430.154 346.97 431.226C346.525 432.299 345.874 433.273 345.052 434.093L344.787 434.358C343.769 435.399 343.086 436.721 342.826 438.154C342.567 439.587 342.742 441.065 343.33 442.397V442.75C343.89 444.056 344.819 445.17 346.004 445.955C347.189 446.74 348.578 447.161 349.999 447.167H350.75C353.093 447.167 355.34 448.097 356.996 449.754C358.653 451.41 359.583 453.657 359.583 456C359.583 458.343 358.653 460.59 356.996 462.246C355.34 463.903 353.093 464.833 350.75 464.833H350.352C348.931 464.839 347.543 465.26 346.358 466.045C345.173 466.83 344.243 467.944 343.683 469.25Z" stroke="#03FBFF" stroke-width="4" stroke-linecap="round" stroke-linejoin="round"/>
<path d="M721 469.25C728.318 469.25 734.25 463.318 734.25 456C734.25 448.682 728.318 442.75 721 442.75C713.682 442.75 707.75 448.682 707.75 456C707.75 463.318 713.682 469.25 721 469.25Z" stroke="#03FBFF" stroke-width="4" stroke-linecap="round" stroke-linejoin="round"/>
<path d="M753.683 469.25C753.095 470.582 752.92 472.06 753.18 473.493C753.44 474.925 754.123 476.247 755.141 477.288L755.406 477.553C756.227 478.374 756.879 479.348 757.323 480.42C757.768 481.493 757.997 482.642 757.997 483.803C757.997 484.964 757.768 486.113 757.323 487.186C756.879 488.258 756.227 489.232 755.406 490.052C754.585 490.874 753.611 491.525 752.539 491.97C751.467 492.414 750.317 492.643 749.156 492.643C747.995 492.643 746.846 492.414 745.774 491.97C744.701 491.525 743.727 490.874 742.907 490.052L742.642 489.787C741.601 488.769 740.279 488.086 738.846 487.826C737.413 487.567 735.935 487.742 734.603 488.33C733.297 488.89 732.183 489.819 731.398 491.004C730.613 492.189 730.192 493.578 730.187 494.999V495.75C730.187 498.093 729.256 500.34 727.599 501.996C725.943 503.653 723.696 504.583 721.353 504.583C719.011 504.583 716.764 503.653 715.107 501.996C713.451 500.34 712.52 498.093 712.52 495.75V495.352C712.486 493.891 712.013 492.473 711.162 491.283C710.311 490.094 709.122 489.188 707.75 488.683C706.418 488.095 704.94 487.92 703.507 488.18C702.075 488.44 700.753 489.123 699.712 490.141L699.447 490.406C698.626 491.227 697.652 491.879 696.58 492.323C695.507 492.768 694.358 492.997 693.197 492.997C692.036 492.997 690.887 492.768 689.814 492.323C688.742 491.879 687.768 491.227 686.948 490.406C686.126 489.585 685.475 488.611 685.03 487.539C684.586 486.467 684.357 485.317 684.357 484.156C684.357 482.995 684.586 481.846 685.03 480.774C685.475 479.701 686.126 478.727 686.948 477.907L687.213 477.642C688.231 476.601 688.914 475.279 689.174 473.846C689.433 472.413 689.258 470.935 688.67 469.603C688.11 468.297 687.181 467.183 685.996 466.398C684.811 465.613 683.422 465.192 682.001 465.187H681.25C678.907 465.187 676.66 464.256 675.004 462.599C673.347 460.943 672.417 458.696 672.417 456.353C672.417 454.011 673.347 451.764 675.004 450.107C676.66 448.451 678.907 447.52 681.25 447.52H681.648C683.109 447.486 684.527 447.013 685.717 446.162C686.906 445.311 687.812 444.122 688.317 442.75C688.905 441.418 689.08 439.94 688.82 438.507C688.56 437.075 687.877 435.753 686.859 434.712L686.594 434.447C685.773 433.626 685.121 432.652 684.677 431.58C684.232 430.507 684.003 429.358 684.003 428.197C684.003 427.036 684.232 425.887 684.677 424.814C685.121 423.742 685.773 422.768 686.594 421.947C687.415 421.126 688.389 420.475 689.461 420.03C690.533 419.586 691.683 419.357 692.844 419.357C694.005 419.357 695.154 419.586 696.226 420.03C697.299 420.475 698.273 421.126 699.093 421.947L699.358 422.212C700.399 423.231 701.721 423.914 703.154 424.174C704.587 424.433 706.065 424.258 707.397 423.67H707.75C709.056 423.11 710.17 422.18 710.955 420.996C711.74 419.811 712.161 418.422 712.167 417.001V416.25C712.167 413.907 713.097 411.66 714.754 410.004C716.41 408.347 718.657 407.417 721 407.417C723.343 407.417 725.59 408.347 727.246 410.004C728.903 411.66 729.833 413.907 729.833 416.25V416.647C729.839 418.069 730.26 419.457 731.045 420.642C731.83 421.827 732.944 422.757 734.25 423.317C735.582 423.905 737.06 424.08 738.493 423.82C739.925 423.56 741.247 422.877 742.288 421.859L742.553 421.594C743.374 420.773 744.348 420.121 745.42 419.677C746.493 419.232 747.642 419.003 748.803 419.003C749.964 419.003 751.113 419.232 752.186 419.677C753.258 420.121 754.232 420.773 755.053 421.594C755.874 422.415 756.525 423.389 756.97 424.461C757.414 425.533 757.643 426.683 757.643 427.844C757.643 429.005 757.414 430.154 756.97 431.226C756.525 432.299 755.874 433.273 755.053 434.093L754.788 434.358C753.769 435.399 753.086 436.721 752.827 438.154C752.567 439.587 752.742 441.065 753.33 442.397V442.75C753.89 444.056 754.82 445.17 756.004 445.955C757.189 446.74 758.578 447.161 759.999 447.167H760.75C763.093 447.167 765.34 448.097 766.996 449.754C768.653 451.41 769.583 453.657 769.583 456C769.583 458.343 768.653 460.59 766.996 462.246C765.34 463.903 763.093 464.833 760.75 464.833H760.353C758.931 464.839 757.543 465.26 756.358 466.045C755.173 466.83 754.243 467.944 753.683 469.25Z" stroke="#03FBFF" stroke-width="4" stroke-linecap="round" stroke-linejoin="round"/>
<path d="M590.939 392.937L586.199 393.183H586.155C585.864 393.183 585.64 392.937 585.64 392.668L584.97 379.902L581.303 380.104C580.99 380.104 580.722 379.88 580.722 379.589L580.521 375.453V375.409C580.521 375.14 580.744 374.917 581.035 374.894L585.216 374.671L594.069 374.201C594.36 374.201 594.65 374.425 594.65 374.738L594.852 378.829C594.852 379.12 594.628 379.388 594.315 379.411L590.783 379.589L591.453 392.378V392.4C591.453 392.691 591.207 392.914 590.939 392.937Z" fill="#03FBFF"/>
<path d="M577.555 383.636C577.555 389.784 571.496 393.317 566.958 393.317C561.86 393.317 557.389 389.561 557.389 383.994C557.389 382.764 557.612 381.445 558.082 380.059C559.535 375.878 563.783 374 567.718 374C574.872 374 577.555 379.902 577.555 383.636ZM567.718 388.376C570.378 388.376 571.921 386.14 571.921 383.614C571.921 381.4 570.736 378.807 567.629 378.807C564.387 378.807 563.269 381.579 563.269 383.614C563.269 386.453 565.415 388.376 567.718 388.376Z" fill="#03FBFF"/>
<path d="M538.757 391.461L537.93 375.543V375.498C537.93 375.23 538.153 375.006 538.444 375.006L541.037 374.85C542.312 374.335 543.966 374.022 545.643 374.022C550.942 374.022 553.178 376.906 553.178 379.746C553.178 381.244 552.462 382.473 551.501 383.368C552.127 383.882 552.641 384.374 552.976 385.179C553.356 386.051 553.535 386.878 553.535 387.616C553.535 391.416 548.997 393.473 544.525 393.473C543.273 393.473 539.092 393.138 538.757 391.461ZM543.698 378.427L543.899 382.362C544.995 382.317 547.678 382.205 547.678 380.282C547.678 379.254 546.873 378.293 544.95 378.293C544.525 378.293 544.1 378.337 543.698 378.427ZM544.078 385.827L544.257 389.293C544.57 389.337 544.861 389.36 545.151 389.36C546.806 389.36 548.013 388.644 548.013 387.526C548.013 386.364 547.052 385.76 545.263 385.76C544.838 385.76 544.436 385.782 544.078 385.827Z" fill="#03FBFF"/>
<path d="M533.314 392.668L527.501 392.981C527.479 392.981 527.434 393.004 527.412 393.004L523.052 393.227H523.008C522.739 393.227 522.516 392.981 522.493 392.713L521.577 375.274V375.23C521.577 374.961 521.823 374.715 522.091 374.715L526.16 374.492H526.249L532.196 374.179H532.241C532.509 374.179 532.755 374.425 532.778 374.693L532.957 378.583V378.628C532.957 378.896 532.711 379.142 532.442 379.165L527.233 379.433L527.345 381.356H531.347C531.615 381.356 531.883 381.579 531.883 381.87V381.915L531.839 385.335C531.816 385.648 531.593 385.894 531.28 385.894H527.568L527.68 387.973L533.113 387.683H533.158C533.448 387.683 533.694 387.929 533.694 388.197L533.851 392.087C533.851 392.378 533.627 392.646 533.314 392.668Z" fill="#03FBFF"/>
<path d="M516.661 393.227H516.616L510.982 392.937H510.893L506.243 392.713C505.952 392.691 505.728 392.445 505.728 392.132L506.645 374.693C506.667 374.425 506.891 374.201 507.182 374.201H507.226L511.854 374.425C512.145 374.447 512.369 374.693 512.369 375.006L511.72 387.347L516.929 387.616C517.242 387.638 517.466 387.906 517.466 388.197L517.198 392.713C517.175 392.981 516.952 393.227 516.661 393.227Z" fill="#03FBFF"/>
<path d="M497.784 392.937L493.045 393.183H493C492.709 393.183 492.486 392.937 492.486 392.668L491.815 379.902L488.148 380.104C487.835 380.104 487.567 379.88 487.567 379.589L487.366 375.453V375.409C487.366 375.14 487.589 374.917 487.88 374.894L492.061 374.671L500.915 374.201C501.205 374.201 501.496 374.425 501.496 374.738L501.697 378.829C501.697 379.12 501.473 379.388 501.16 379.411L497.628 379.589L498.299 392.378V392.4C498.299 392.691 498.053 392.914 497.784 392.937Z" fill="#03FBFF"/>
<path d="M480.014 392.937L475.274 393.183H475.229C474.939 393.183 474.715 392.937 474.715 392.668L474.044 379.902L470.378 380.104C470.065 380.104 469.796 379.88 469.796 379.589L469.595 375.453V375.409C469.595 375.14 469.819 374.917 470.109 374.894L474.29 374.671L483.144 374.201C483.434 374.201 483.725 374.425 483.725 374.738L483.926 378.829C483.926 379.12 483.703 379.388 483.39 379.411L479.857 379.589L480.528 392.378V392.4C480.528 392.691 480.282 392.914 480.014 392.937Z" fill="#03FBFF"/>
<path d="M469.91 391.551L465.662 393.071C465.55 393.116 465.416 393.138 465.304 393.138C464.947 393.138 464.678 392.937 464.611 392.78L459.648 381.646C459.581 381.49 459.514 381.423 459.447 381.423C459.268 381.423 459.022 382.049 457.613 385.604L460.162 385.738C460.453 385.738 460.676 385.984 460.676 386.274V386.319L460.408 390.321C460.386 390.589 460.162 390.835 459.872 390.835H459.827L455.691 390.634C455.266 391.707 454.953 392.534 454.886 392.736C454.774 393.004 454.595 393.16 454.327 393.16C454.215 393.16 454.103 393.138 453.969 393.093L450.548 392.11C450.124 391.975 449.945 391.707 449.945 391.372C449.945 390.679 453.768 378.114 457.412 374.715C457.546 374.604 457.882 374.447 458.217 374.447H461.459C461.928 374.447 462.308 374.671 462.398 374.872L470.156 390.656C470.201 390.746 470.245 390.88 470.245 390.992C470.245 391.215 470.134 391.461 469.91 391.551Z" fill="#03FBFF"/>
<path d="M431.827 391.461L431 375.543V375.498C431 375.23 431.224 375.006 431.514 375.006L434.108 374.85C435.382 374.335 437.037 374.022 438.713 374.022C444.012 374.022 446.248 376.906 446.248 379.746C446.248 381.244 445.532 382.473 444.571 383.368C445.197 383.882 445.711 384.374 446.047 385.179C446.427 386.051 446.606 386.878 446.606 387.616C446.606 391.416 442.067 393.473 437.595 393.473C436.343 393.473 432.163 393.138 431.827 391.461ZM436.768 378.427L436.969 382.362C438.065 382.317 440.748 382.205 440.748 380.282C440.748 379.254 439.943 378.293 438.02 378.293C437.595 378.293 437.171 378.337 436.768 378.427ZM437.148 385.827L437.327 389.293C437.64 389.337 437.931 389.36 438.221 389.36C439.876 389.36 441.083 388.644 441.083 387.526C441.083 386.364 440.122 385.76 438.333 385.76C437.908 385.76 437.506 385.782 437.148 385.827Z" fill="#03FBFF"/>
</svg>
